<svg xmlns="http://www.w3.org/2000/svg" width="100%" height="100%"><g class="A" fill-rule="evenodd" fill="#b12a2e"><path d="M129.8 58c0 .3-.4.6-.6.7-1.1.7-1.2 1.2-1.9 1.7-.1.1-.2.1-.2.2s.1.2.1.3-.2.1-.2.2c-.1.1.1.3.2.3s.3 0 .4.1.1.3.1.5c0 .4-.1.8-.1 1.2v.3c.1.2.3.2.3.4 0 .1-.1.3-.2.3-.1.1-.3.1-.4.1 0 0-.1 0-.1.1v.8c0 .1 0 .3-.1.4-.1.2-.4.3-.6.3s-.5 0-.7.1v.1c0 .2.1.3.2.4.2.1.4.1.5.2s.2.3.1.4c0 .4-.3.7-.5 1-.2.4-.4.8-.5 1.2-.1.3-.1.7-.4 1-.3.4-.9.4-1.4.3-.3-.1-.5-.2-.8-.2s-.6.2-.5.5a.76.76 0 0 0 .2.4c.3.3.7.6 1.2.9.2.1.5.2.7.4s.3.4.3.7c-.1.3-.3.4-.6.5-.5.2-1.1.4-1.7.3-.3-.1-.6-.3-1-.2-.2 0-.3.1-.4.3-.5.5-.8 1.4-.4 2.1.1.1 0 .3-.1.4a1.38 1.38 0 0 1-.4.3c-.2.2-.3.5-.4.8l-.5 1.4c-.1.4-.3.8-.5 1.2a1.96 1.96 0 0 1-.9.9c-.4.2-.8.3-1 .6-.1.2-.2.4-.4.4h-.2c-.3-.1-.5-.1-.8-.2-.2.1-.4 0-.5-.1-.2-.1-.3-.2-.5-.3-.3-.1-.7 0-.8.3-.1.1-.1.2-.2.3-.2.2-.5.1-.8.2s-.5.5-.7.8-.5.6-.9.7c-.1.1-.3.1-.5.1s-.3-.1-.4-.2c-.6-.4-1.2-.8-1.7-1.3-.7-.7-1.4-1.5-1.3-2.5 0-.3.1-.8-.2-1s-.7 0-1 .2c-.5.4-1 .8-1.6 1-.2.1-.3.1-.4.2s-.1.2-.1.3c0 .7.6 1.3 1.3 1.3.2 0 .5 0 .6.1s.1.2.1.4c.1.3.3.4.5.6.2.1.5.2.7.4.2.3.3.7.6.9l.6.3c.2.1.4.3.4.5 0 .1-.2.2-.3.3-.5.4-1.1.7-1.6 1.1-.4.3-.8.6-1.2.7s-.9 0-1.3.1c-.3.1-.5.3-.7.4-.6.4-1.3.7-2 .9-.5.2-.9.3-1.4.4-.7.1-1.4 0-1.9.4-.3.2-.5.6-.8.6-.2 0-.5 0-.7.1-.7.6-1.7.7-2.6.7-1.3.1-2.6.1-3.9 0-.9-.1-1.9-.3-2.6.2-.2.1-.4.3-.6.3-.3 0-.5-.2-.8-.2-.4-.1-.8.2-1.2.3-.5.1-1 0-1.5-.1-.1 0-.2 0-.3-.1s-.1-.2-.2-.4c-.3-1-1.4-1.7-2.4-1.4-.1 0-.2.1-.3 0-.1 0-.2-.1-.2-.1-.2-.1-.4 0-.5.2a.55.55 0 0 0-.3-.5c-.2-.1-.4.1-.5.3.1-.3 0-.7-.2-1s-.5-.4-.9-.3c-.3 0-.4.3-.7.5-.1.1-.2.1-.3.1-.5.2-1.2-.1-1.7.1-.1.1-.2.1-.4.2-.3.1-.5-.1-.8-.2s-.7.1-.9.4c-.1.1-.2.3-.3.4-.3.1-.6-.1-.9-.3-.4-.2-.9-.4-1.3-.3s-.8-.2-.9-.6c-.2-.4-.3-.8-.6-1.1s-.7-.4-1.1-.6c-.3-.2-.5-.4-.8-.5s-.6-.2-.9-.1c-.4.2-.5.7-.2 1.1.2.3.7.5.6.8-.3.2-.6 0-.9-.2-.2-.2-.5-.5-.8-.5-.4-.1-.7.1-1.1.2-.6.3-1.3.4-1.9.2s-1-.9-1.6-1.3c-.1-.1-.1-.1-.2-.1s-.3.1-.4.1c-.7.4-1.5.6-2.3.6-.4 0-.9-.1-1.3-.1-.3 0-.5.1-.8.1-.4 0-.7-.2-1-.3-1.3-.4-2.6.5-3.9.4-1-.1-1.7-.7-2.7-.6-.1.2-.4.4-.6.4-.5-.7-1.1-1.3-1.6-2-.4-.5-1-1.1-1.6-.9-.5.1-.9.7-1 1.2-.2.5-.3 1.1-.6 1.5-.4.5-1.1.6-1.6.9-.7.5-1.1 1.4-1.9 1.6-.2.1-.5.1-.7.2-.3.2-.4.5-.6.8-.6.9-2 1-2.9 1.6-.7.4-1.3 1.2-2.1 1.3-.4.1-.9 0-1.3.1-.5.1-.9.4-1.3.7-1 1-2.3 1-3.6.9-1-.1-2.1-.2-2.9.3l-.6.3c-.5.2-1 0-1.3-.3-.4-.3-.7-.7-1.1-1a.76.76 0 0 0-.4-.2c-.2 0-.3.1-.5.2-.6.2-1.3-.5-2-.4-.8.1-1 1-1.1 1.8-.3-1.1-1.4-1.9-2.6-1.9-.6 0-1.3.2-1.9-.1-.7-.4-1.4-1.3-1.2-2.1.3-1.2.3-2.5-.3-3.6-.2-.4-.4-.8-.5-1.2 0-.3.1-.7.2-1 .3-1.1.4-2.3.4-3.4 0-.3 0-.6-.2-.9-.2-.4-.7-.6-1.2-.6-.5.1-.8.4-1 .8-.2.5-.1 1.2-.1 1.8 0 .1 0 .2-.1.2-.1.1-.2.1-.4.1s-.5 0-.6-.2v-.3c0-.6-.2-1.2-.5-1.7-.1-.2-.3-.3-.4-.3-.1.1-.1.4-.1.7 0 .5 0 .9-.3 1.3a1.36 1.36 0 0 1-1.1.7c0-.6 0-1.2-.2-1.8-.1-.1-.1-.3-.2-.4-.1-.6.3-1.1.3-1.7 0-.3 0-.6-.1-.8s-.1-.5-.2-.7c-.1-.3-.3-.5-.5-.7l-.9-1.1c-.1.2-.3.4-.4.7-.1.2-.2.5-.1.7.1.1.2.1.2.2.3.3.1.7.1 1.1 0 .5.3.9.2 1.4 0 .6-.6 1-1 1.3v.2c.6.6 1 1.5 1 2.3 0 .7-.1 1.3-.2 2-.1.8-.1 1.7-.1 2.5l8.7 11.1 6.1 8.5 11 14.4 14.3 18.4 51.4 6.7 54 7c.5-.8 1-1.5 1.6-2.2.4-.5.8-.9 1-1.5.1-.3.2-.7.3-1.1.2-1 .2-2 .1-3.1-.1-1.2-.3-2.4-.2-3.6 0-.7.1-1.4.2-2.1.1-1.6.1-3.3 0-4.9.7-.9 1.1-1.9 1.1-3v-.8c.1-.8.7-1.3 1.1-2 .9-1.2 1.2-2.6 2-3.8.9-1.5 1.5-3.1 1.9-4.8.4-2 .4-4.1 1.4-5.9.3-.6.9-1 1.4-1.5 1-.9 1.5-2.3 1.5-3.6-.1-2.3 1.1-4.4 2.5-6.2.5-.7 1.1-1.5.8-2.3-.1-.2-.2-.4-.3-.7-.2-.5-.1-1 0-1.6.1-.5 0-.9.1-1.5.1-.5-.1-1.1-.4-1.5s-.8-.6-1.3-.7c-.5-.2-.9-.4-1.3-.7s-.5-.9-.3-1.4c.3-.5.9-.6 1.4-.7 1.1-.1 2.3-.3 3.2-.9.4-.3.7-.7 1.2-1s1.1-.4 1.7-.3h2c.2 0 .5.1.4.3.5.1 1 .1 1.5-.1.2-.1.4-.2.6-.2s.5 0 .6.2c0 .1.1.2.1.2.1.1.1.1.2.1.9.3 1.8-.1 2.7-.5.1 0 .2-.1.2-.2s0-.2.1-.3.1-.1.2-.1l2.1-.7c.5-.2 1.1-.3 1.6-.4.6-.1 1.3 0 1.8-.3.1 0 .1-.1.2-.1v-.2a1.92 1.92 0 0 0-.4-1.2c-.3-.4-.7-.7-1-1s-.6-.8-.5-1.3c.1-.6.1-1.3-.2-1.8-.1-.2-.3-.4-.4-.6-.1-.3 0-.8-.3-1-.2-.2-.5-.2-.7-.1l-1.1.3c-.3.1-.6.3-1 .5-.3.1-.7.1-1 0-.1-.1-.2-.2-.4-.2-.7-.4-1.5.1-2.2.1-.2 0-.4 0-.5-.2-.1-.1 0-.2 0-.4.1-1 .4-1.9.8-2.8.1-.4.3-.8.5-1.1.2-.2.3-.4.5-.7.2-.4.2-.9.2-1.4s0-1.1-.3-1.5c-.4-.6-1.2-.8-1.5-1.4-.2-.5-.1-1 0-1.5.2-1.1.2-2.2-.1-3.2l-.3-.8c0-.3.1-.6.3-.8.1-.1.3-.1.5-.2s.3 0 .3-.1c-.3-.9.1-2 .9-2.5.1-.1.3-.2.4-.3.1-.2 0-.3-.1-.5-.5-1-1.4-1.9-1.3-2.9.1-.5.3-1 .4-1.5.3-1.6-1-3.2-.6-4.8.1-.4.3-.8.5-1.1.7-1.2 1.4-2.4 2.5-3.2 1.3-1 3.1-1.4 4.7-1 .4.1.7.2 1 .5.4.4.5.9.6 1.5.2 1 .3 2.1.4 3.1-.4.1-.8-.2-1.1-.5-.3-.2-.8-.5-1.1-.2-.3.2-.3.6-.2.9s.4.5.7.7c.4.3.8.5 1 .9.1.2.1.5.1.8.1 1.1.6 2.1 1.4 2.8a2.74 2.74 0 0 0 3 .4c.9-.5 1.4-1.6 1.8-2.5.4-1 1-2 2-2.4.6-.2 1.5-.2 1.9-.7.2-.3.2-.6.4-.8.5-.7 1.8-.2 2.3-.9.1-.1.2-.3.3-.4.2-.2.6-.3.9-.5.6-.3.8-1.2.3-1.7l-.3-.3c-.1-.1-.1-.3-.1-.4 0-.6.1-1.3-.1-1.9s-.6-1.1-.9-1.7c-.2-.6-.2-1.3-.2-1.9v-3.2c0-.7 0-1.3.2-2 .2-.8.6-1.5.7-2.3.1-.7.1-1.5 0-2.2 0-.4-.1-.8-.3-1.1-.2-.2-.4-.3-.6-.5s-.3-.4-.2-.7c0-.1.1-.2.2-.3.5-.6 0-1.3 0-2v-3.1c0-.6.1-1.2 0-1.8-.1-.5-.2-1-.4-1.5-.1-.3-.3-.7-.3-1s0-.6-.2-.8c-.1-.1-.2-.2-.4-.2-.4-.2-.8-.3-1.3-.3-.3 0-.6 0-.9-.1s-.4-.4-.6-.6c-.2.3-.5.4-.9.5-.3.1-.8.1-1.1.3-.1 0-.2 0-.3-.1-.2-.1-.3-.3-.4-.6-.2-.5-.3-.9-.4-1.3-.3 0-.6-.1-1-.1-.2 0-.4 0-.5-.1-.2-.1-.4-.3-.4-.6-.1-.2-.1-.5-.1-.7 0-.4 0-.8-.1-1.2 0-.2 0-.4.1-.6.2-.5 1-.7 1.1-1.3.1-.2 0-.5-.1-.7s-.3-.4-.5-.5c-.1-.1-.3-.2-.3-.3-.1-.2-.1-.4-.1-.6-.1-.2-.2-.3-.2-.5a.96.96 0 0 1 .2-.9c.2-.3.5-.5.7-.8.1-.2.3-.3.4-.5a1.39 1.39 0 0 0-.2-1.1c-.1-.1-.1-.2-.1-.3 0-.2.1-.3.1-.4.2-.4.2-.9.2-1.4 0-.7.1-1.3.3-2 .1-.5.3-.9.1-1.4l-.3-.6-.3-1c-.1-.3-.1-.5-.2-.7 0-.1-.1-.2-.1-.2-.2-.1-.4-.1-.6 0l-1.1.6c-.4.2-.8.3-1.2.3h-.3c-.2 0-.3.2-.4.3-.2.4-.2 1-.2 1.5 0 .3-.1.6-.3 1l-.7 2.1c-.1.4-.2.8-.5 1.1-.3.4-.6.8-.8 1.2.2.1.4-.2.5-.4.2-.3.5-.6.8-.8.1.3-.1.6-.2.9s-.1.6-.1.8c-.1.3-.3.5-.5.7l-1.6 1.5c-.1.1-.3.2-.3.4-.1.2-.1.5-.1.7-.1.6-.3 1.2-.5 1.8 0 .1-.1.3-.2.3s-.2-.1-.2-.2v-.3c.1-.4.3-.8.6-1.2.1-.2.3-.4.2-.7-.2 0-.4.2-.6.4l-3.1 3.9c-.5.5-1 .9-1.7 1.1-.2 0-.5 0-.7.1-.3.1-.4.4-.7.5-.2.1-.5.1-.7.2l-.3.3c-.6.8-1.1 2.1-2 2.1-.4 0-.7.3-.9.5-.2.3-.4.6-.7.9-.2.2-.5.4-.7.6-.4.4-.7.9-.7 1.5 0 .2 0 .4-.1.6s-.4.3-.7.4c-.3 0-.5 0-.8.1-.2.1-.4.2-.5.2-.3.1-.6 0-.8.1s-.4.3-.6.2c-.1-.1-.2-.3-.1-.4 0-.5.2-1 .3-1.5 0-.1 0-.3-.1-.3s-.1.1-.2.1c-.4.7-.8 1.5-1.1 2.3-.3.7-.5 1.5-1.1 1.9.1.3.2.6.1.9-.1.2-.3.3-.4.5s-.1.5-.1.8 0 .6-.3.7c-.2.1-.4.1-.5.2-.1.2.1.5 0 .7-.2.1-.4.1-.6.1-.1 0-.2 0-.2-.1s.1-.2.2-.2c.1-.1.2-.2.2-.3v-.1h-.2c-.5.2-.9.6-1.2 1.1s-.5 1-.9 1.4c-.2.3-.5.5-.7.8-.2.2-.3.3-.5.4-.1 0-.3 0-.5.1-.3 0-.5.2-.7.5-.2.2-.4.5-.6.7-.5.5-.9 1.1-1.3 1.6l-3.4 4.8c-.2.2-.4.5-.6.7l-1.8 2.1c-1 1.1-1.7 2.5-2.8 3.5-1.3 1.2-2.8 2.2-4.5 2.8a4.67 4.67 0 0 0-1 .5c-.2.2-.4.5-.5.8-.4.7-1.2 1.2-1.9 1.5-.6.3-1.2.7-1.8 1.2-.2.2-.5.5-.8.6s-.7.2-1 .4c-.2.1-.3.4-.5.5-.1 0-.2 0-.3.1v.1c0 .2.1.4.2.5.1.2.1.5.1.7s0 .4-.2.6c-.1.1-.2.1-.3.2s-.1.2-.2.2c-.1.1-.3 0-.4-.1a.76.76 0 0 1-.2-.4c-.2-.5-1.2-.7-1.3-.5.2-.8.3-.7.3-.7M0 75.4c0 .2.1.3.3.3 0 0 .1 0 .1.1v.1c.1.1.2.1.2.1h.3v-.1c.1-.3 0-.7-.3-.9-.1-.1-.6 0-.6.4m5 3.8c0 .1 0 .3.1.3.1.1.3.1.4.1.1.1.1.2.2.2.1.1.2.3.3.2s-.1-.3-.1-.4c-.1-.2-.1-.3-.1-.5-.1-.2-.6 0-.8.1m14 4.6c.1.1.2.2.3.2h.4c0-.1.1-.2 0-.3v-.2s0-.1.1-.1c.1-.2.2-.5 0-.8 0-.1-.1-.2-.2-.3s-.1-.2-.1-.3c-.1.1-.2.1-.3.2s-.2.2-.2.3.1.2.1.4c0 .1 0 .1-.1.2s-.1.3-.1.4c.1.1.1.2.1.3"/><path d="M18.6 85c-.2.1-.4.2-.4.4 0 .1.1.3 0 .4 0 .1-.1.1-.1.1-.2.2-.1.5 0 .6l.2.2s0 .1.1.1l.1.1c.2.1.4-.1.5-.3v-.4c0-.3 0-.5.1-.8v-.3c0-.1-.1-.2-.2-.2-.2.1-.3.1-.3.1m18.6 4.7l-.1-.1c-.1-.2-.1-.3-.1-.5V89h.5c.1 0 .2 0 .3.1s.1.1.1.2c0 .2 0 .4-.1.6 0 0 0 .1-.1.1h-.5c.1-.1.1-.3 0-.3m7.3-12.6c.2-.1.5-.1.7-.1s.5.1.6.3c.2.2.2.4.2.7v.8c0 .2-.1.4-.2.6-.2.3-.6.6-.9.8l-.6.6a.76.76 0 0 1-.4.2c-.1 0-.1-.1-.2-.1-.1-.1-.3-.3-.5-.4-.1-.1-.3-.1-.4-.2-.5-.3-.8-.8-.8-1.3s.2-1 .4-1.5c0 0 0-.1.1-.1H44c.2-.2.3-.2.5-.3m-13.8-5.5c.1 0 .2.1.3.2s.1.2.1.2l.3 1c.2-.1.3-.3.4-.4.1-.4.2-.8.2-1.2v-.7c0-.2-.1-.4-.2-.6l-.6-1.1s-.1-.1-.1 0v.1c-.1.3-.2.5-.4.7l-.3.3c-.1.1-.1.2-.2.4s-.1.3-.1.5v.1c0 .1.1.1.1.1.1.2.3.3.5.4M65.2 80h.4c.1 0 .3-.1.3-.2.1-.2-.1-.4-.2-.6s-.1-.4-.1-.6a.47.47 0 0 0-.5-.5c-.8-.2-1.4.7-1.1 1.3.3.3.8.5 1.2.6M64 87.6s0 .1 0 0c0 .1-.1.1-.1.2-.3.2-.5.4-.8.1-.1-.1-.2-.4-.1-.6s.3-.3.6-.3.4.3.4.6m9 1.7c-.1-.1-.2-.2-.3-.2h-.1v.1c-.1.1-.1.2-.2.3-.1 0-.1.1-.2.1 0 .1-.1.1-.1.2.1.1.2.1.4.2.1.1.2.1.4 0 .1 0 .2-.1.2-.3-.1-.1-.1-.3-.1-.4m1.5-7.1c-.2.1-.4.3-.4.5-.1.3 0 .5.1.8 0 .2.1.3.1.5.1-.5.2-.9.5-1.3.1-.2.2-.3.3-.5V82l-.1-.1c-.3.1-.4.2-.5.3m3.5 2.3c0-.2-.2-.3-.5-.4s-.7-.1-1-.1c-.5 0-1 0-1.4.2 0 0-.1 0-.1.1v.1c0 .1.1.3.3.4.2 0 .4 0 .5.1 0 0 0 .1.1.1h.1c.5 0 .9 0 1.4-.1.1 0 .2 0 .2-.1.1 0 .1-.1.2-.2.2.1.2 0 .2-.1m4.1 1.5c.3.1.7 0 .8-.3.1-.2.1-.5-.1-.7-.1-.2-.4-.4-.5-.6l-.3-.3c-.1-.1-.3-.1-.5 0-.1 0-.1.1-.1.1-.1.1-.3.3-.3.5v.4c0 .1 0 .2.1.3s.2.1.3.2c.2.1.3.2.5.3l.1.1m-8.8-3.8c-.1.1-.2.1-.3.1h-.2c-.1-.1-.2-.3-.3-.4-.1-.2-.4-.3-.6-.3-.1 0-.2 0-.3.1s-.2.3-.2.5c-.1.2-.1.5-.2.7 0 0 0 .1-.1.1H71c-.3-.1-.5-.6-.7-.9l-.2-.2h-.2c-.2.1-.5.2-.7.2a1.08 1.08 0 0 1-.7-.3l-.3-.6c-.1-.2-.2-.4-.2-.6 0-.4.3-.7.5-.7.3 0 .5.1.7.3.2.1.5.3.8.1.1-.1.2-.2.4-.3.5-.4 1.1-.4 1.6-.4.1 0 .3 0 .4-.1.2-.1.3-.2.5-.4.2-.1.3-.2.5-.2a.55.55 0 0 1 .5.3c.1.2.1.5.1.8-.1.3-.2.5-.3.7-.1.1-.2.2-.2.3-.2.4 0 .9-.2 1.2m4.7-4c.1-.4-.2-.9-.6-1.1-.4-.1-.9-.1-1.3-.1-.2 0-.4.1-.5.2-.3.2-.4.6-.4.9-.1.5-.1 1-.1 1.5v.2c.1.1.2.1.3.2.3.1.6 0 .9-.2.2-.2.4-.6.2-.9 0-.1-.1-.1-.1-.2.2 0 .4 0 .7-.1.2 0 .5 0 .7-.1.1 0 .1-.1.2-.1-.1 0 0-.1 0-.2m-1.4-3.5c0 .1 0 .2.1.2s.2.1.3.1c.2 0 .3-.1.4-.2s.3-.2.4-.4l.2-.2c.1-.1 0-.2 0-.3v-.4c0-.1 0-.2-.2-.3s-.4 0-.6-.1c-.1 0-.1 0-.2-.1-.3-.1-.8-.1-1 .1v.5c0 .1 0 .2.1.3s.2.1.2.2c.3.1.2.3.3.6m-2.7-3.6c-.2-.1-.5-.1-.7 0 0 0-.1 0-.1.1-.1 0-.1.1-.1.2v.1l.1.1c.1.1.3.1.3.2s.1.1.1.2.1.1.2.1.1-.1.1-.1c.1-.2.1-.3.2-.5v-.2c0-.1-.1-.2-.1-.2m10.2 10.6c.2.2.5.2.7.3.1 0 .2 0 .3-.1v-.1c.1-.1.2-.1.3-.1s.3-.2.3-.3.3-.4.3-.6 0-.5-.1-.6c-.1-.2-.3-.2-.5-.2-.1 0-.3 0-.4.1s-.3.1-.4.3c-.2.2-.4.5-.5.9v.2c-.1.1 0 .2 0 .2m8.9-1.3v-.2c0-.1 0-.1-.1-.1-.1-.1-.3-.1-.4 0-.4.1-.8.2-1.2.4-.1 0-.1.1-.2.1-.1.1 0 .3.1.3.1.1.3.1.5.1s.5 0 .7-.1h.1v-.1c0-.1.1-.2.2-.2.1-.1.2-.1.3-.2"/><path d="M92.9 79.1c.1 0 .1.1.1.2s0 .1-.1.2c0 .1 0 .2-.1.3-.1.2-.5.3-.7.1s-.2-.5-.1-.7c0-.1.1-.1.1-.1.1-.1.4 0 .5 0 .2-.1.2 0 .3 0m-7.5 6.6c.5-.3 1.2-.3 1.7-.6.4-.2.7-.5 1-.7.6-.5 1.3-.9 2-.8.4.1.9.3 1.3.2.3-.1.5-.5.8-.6s.6-.1.9-.2c.2-.1.3-.3.5-.4.2-.2.4-.3.6-.4h.1s.1 0 .1.1c.2.4-.2.8 0 1.2.1.2.3.2.4.4.1.1.1.2.2.3.2.2.6.2 1 .3.2 0 .4.1.5.1l1.3.3c.4.1.7.4.9.7.1.1.1.2.1.3s0 .2-.1.3c-.1.3-.2.6-.4.9-.1.1-.1.3-.2.4-.3.3-.8.3-1.2.1-.2-.1-.3-.2-.5-.2s-.4 0-.5.1v.3c-.5 0-1.2-.1-1.4-.6 0-.1-.1-.2-.1-.3l-.2-.2c-.2-.1-.4-.3-.6-.4h-.1c-.1 0-.1 0-.2.1-.2.4.3.9 0 1.2-.1.1-.2.1-.3.2-.4.2-.9.3-1.3.5.1-.3-.2-.3-.4-.3-.1 0-.2-.1-.3-.2-.3-.1-.6-.1-.9-.1-.7-.1-1.1-.6-1.8-.8-.3-.1-.7-.2-.9-.5-.6.2-1.3.3-2 .2-.1 0-.2 0-.3-.1-.1 0-.1-.2-.1-.4s.1-.3.3-.4h.1m18.5 1c.1-.2.2-.5 0-.8-.1-.2-.2-.3-.3-.4s-.2-.2-.4-.3l-.1-.1h-.2c-.5 0-.9-.1-1.4-.1h-.2c-.1.1-.2.2-.2.3 0 .2.1.4.3.6.1.1.2.3.3.4 0 .1.1.1.2.2s.2.1.3.1c.3 0 .7 0 .9.1s.4.3.6.3c0 0 .1-.2.2-.3m.5-1.8c.1 0 .1.1 0 0 .1.1.1.1.2.1s.2 0 .3-.1.1-.2.1-.4c0-.1-.1-.2-.3-.3-.1-.1-.2-.1-.4-.1-.1 0-.1 0-.2-.1h-.1v.5c0 .1.1.1.2.2.1 0 .2.1.2.2"/><path d="M104.3 84.4c.2 0 .4 0 .6.1s.5.3.7.4c.1.1.3.1.4 0s0-.2 0-.2c-.1-.1-.2-.1-.3-.1s-.2-.1-.3-.1l-.2-.2c-.2-.1-.4-.2-.6-.2h-.6c0 .1 0 .3.2.3h.1m-2 3.5l-.1-.1c0-.1-.1-.1-.1-.2-.1-.2-.1-.4-.1-.6.3-.1.7 0 .9.3.1.1.1.2.1.3v.2c-.2.2-.5.2-.7.1m6.1-11.6c.4 0 .8-.3 1-.7.1-.2.1-.3.2-.5a.76.76 0 0 1 .4-.2c0 .4-.1.8-.1 1.2v.3c0 .1.1.2.2.3.3.2.5.5.7.8.1.1.1.2.1.3s-.1.1-.2.1c-.2 0-.3-.1-.5-.2l-.4-.4c-.2-.1-.5-.1-.8-.1s-.6 0-.9-.1c0 0-.1 0-.1-.1v-.1c0-.2-.1-.5.1-.6h.3"/><path d="M110.5 77.2c.4.2.6.6.9 1 .2.3.3.6.5.8.1.2.2.3.2.5s0 .4-.2.5c-.1.1-.3.1-.5.1h-.2l-.1.1c-.1.2-.2.4-.4.6l-.1.1h-.1c-.3 0-.6-.1-.7-.3-.2-.2-.2-.5-.4-.8s-.5-.5-.9-.6a.76.76 0 0 1-.4-.2c-.1-.1-.2-.3-.2-.5s0-.4.2-.5c.1-.1.2-.1.4-.1a.78.78 0 0 0 .4-.4c.1-.2.2-.4.3-.5s.2-.1.3-.1l1 .3m2.1-.9c-.1 0-.3 0-.3.1-.1.1-.1.2-.2.3-.1.2-.1.5.1.7.1.1.3.1.4.2s.2.3.2.5v.5c0 .1.1.2.1.3.2.3.5.5.7.8 0 .1.1.2.2.3s.3 0 .4-.2c.1-.1.1-.3.1-.5.1-.3.2-.6.4-.8.1-.1.2-.2.2-.3.1-.1.1-.3.1-.5 0-.3 0-.6-.2-.8-.1-.1-.3-.2-.5-.3-.3-.1-.4-.4-.7-.5-.2-.2-.5-.3-.8-.2-.1.2-.2.3-.2.4m3.2-.8c0 .1 0 .2-.1.2 0 .1-.1.2-.2.2h-.5c-.1-.1-.1-.2-.1-.4a.76.76 0 0 1 .2-.4c.1-.1.2-.1.2 0l.1.1h.1l.1-.1s.1-.1.1 0l.1.1v.2c.2 0 .1.1 0 .1m2.2 2.1c0-.2-.2-.5-.4-.6h-.3c-.1 0-.2.1-.3.1-.1.1-.1.3 0 .3h.1c.1 0 .2.1.3.3 0 0 0 .1.1.1.1.1.2.1.3 0 .1 0 .1-.1.1-.2.1.1.1.1.1 0m.1-4.8c.3.4.9.4 1.3.7.2.2.4.5.6.7s.4.3.7.3c.1 0 .2 0 .3.1v.1c0 .4-.1.7-.1 1.1v.1c0 .1-.1.1-.2 0-.1 0-.1-.1-.1-.2-.2-.3-.7-.2-1-.4-.2-.1-.4-.3-.6-.4-.3-.2-.7-.3-1.1-.3h-.5c-.5-.1-.7-.7-1.2-.8-.2 0-.4.1-.6.1a.47.47 0 0 1-.6-.1c-.1-.1-.1-.3 0-.4a1.38 1.38 0 0 0 .3-.4l1.2-1.2c.1-.1.2-.1.3 0 .2 0 .4.1.6.1.3.1.7 0 1 0h.2c.1 0 .1.1.1.2s-.1.1-.2.1-.2.1-.3.1c0 .4 0 .5-.1.5"/><path d="M119.4 73h-.8c-.1 0-.3 0-.4.1s-.1.2 0 .3.1.2.2.2c.3.2.6.2.9.2.1 0 .3 0 .4-.1.2-.1.3-.4.4-.6v-.2c0-.1-.2-.1-.3-.1-.2.2-.3.2-.4.2m2.4-1.4c.1 0 .2.1.2.2s-.1.2-.2.2c-.2 0-.4-.1-.5-.2-.4-.2-.7-.4-1-.7-.1 0-.1-.1-.2-.2 0-.1 0-.1-.1-.2v-.5c0-.1 0-.2.1-.2.1-.1.2 0 .3.1a3.04 3.04 0 0 1 .5.7c.3.3.6.6.9.8m-4.2-3c-.1.2-.3.3-.5.4-.3.2-.6.5-.8.7s-.4.5-.3.8.7.5 1.1.5c.5 0 .9 0 1.4-.1.2 0 .4-.1.5-.2s0-.3-.1-.4-.3-.1-.5-.2a1.38 1.38 0 0 1-.4-.3c-.1-.2.2-.4.4-.6.5-.4.9-.8 1.3-1.2.1-.1.2-.3.3-.5 0-.2 0-.3-.2-.5-.2-.1-.4-.1-.7-.1l-.6.3c-.3.3-.6.6-.8 1 0 .2 0 .3-.1.4m4.4 2.3c.1.1.2.1.3.1h.5c.1-.1.1-.6.1-.7-.1-.1-.2-.2-.4-.3-.2 0-.3 0-.4.1-.1.2-.2.6-.1.8m.9-1.9c.3.1.7.1.9-.1.1 0 .1-.1.1-.1.1-.1 0-.3-.2-.3-.1-.1-.3-.1-.4-.1h-.3c-.1 0-.2 0-.2-.1-.1 0-.1-.1-.1-.2-.2-.1-.4 0-.6 0 0 0-.1 0-.1.1-.1.1-.1.1 0 .2 0 .2.2.3.3.4.2.1.4.1.6.2m-.5-2.1c.1-.1 0-.2.1-.3 0-.1.2-.2.3-.3.2-.1.3-.5.1-.7l-.3-.3c-.1-.1-.2-.2-.4-.3h-.1s-.1 0-.1.1c-.1.2 0 .4-.1.5 0 .1-.1.1-.2.2s-.1.2-.1.2h-.4c-.1 0-.3.1-.3.2-.1.1-.1.3 0 .4.2.2.5 0 .6.2 0 0 0 .1.1.1 0 0 .1.1.2.1h.3c.2 0 .3 0 .3-.1m3.3-2c.1-.1.2-.3.3-.4s.1-.2 0-.3-.3-.1-.5 0c-.1.1-.2.2-.3.4-.2.2-.5.4-.8.5-.1 0-.3.1-.3.2v.2c0 .3.2.6.5.7s.6-.1.8-.3c0-.5.1-.8.3-1"/><path d="M124.5 64.7c0 .1-.1.2-.2.2-.1.2-.2.4-.2.6-.1.3-.1.6 0 .8s.5.3.5.5c0 .1 0 .1.1.1l.1-.1c.2-.4.2-.8.2-1.3v-1.4c0-.1 0-.2-.1-.3-.1 0-.1 0-.2.1l-.1.1v.2c0 .1-.1.1-.1.1v.4m5.8-7.7c.1-.1.2-.2.2-.3.1-.5.3-.8.5-1.2 0-.1.1-.1.1-.2s-.1-.3-.2-.3c-.2-.1-.4 0-.4.3 0 .1 0 .2-.1.2l-.3.6c-.1.2-.1.4-.1.6v.2c.1.1.2.1.3.1"/><path d="M130.7 56c-.1 0-.2 0-.3.1-.1 0-.2.1-.2.1-.1.1-.1.1-.1.2s0 .2-.1.3v.1c0 .1.1.1.2.2h.1c.1 0 .1 0 .2-.1 0-.1.1-.1.1-.1.1 0 .2 0 .3-.1l.1-.1c0-.1.1-.2 0-.4v-.1c-.1-.1-.2-.1-.3-.1m29.2-26.5c0-.1.1-.1.1-.2s0-.2-.1-.2h-.2c-.1 0-.1.1-.1.2-.1.2-.2.4-.4.6 0 .1-.1.1-.1.2s-.1.1-.1.2c0 .2-.1.4 0 .7v.1h.1c.2-.1.3-.3.4-.6.2-.4.3-.7.4-1m6.2-6.7c0 .1 0 .1.1.2h.2c.1 0 .1-.1.2-.1.1-.1.2-.1.2-.2v-.1c0-.1 0-.2-.1-.3 0-.1 0-.1-.1-.2-.1 0-.2-.1-.3-.1h-.1c-.1.1-.1.1-.1.2v.3c.1.1.1.2 0 .3"/><path d="M168.4 21c.1 0 .2-.1.3-.2s.2-.2.3-.4c0-.2 0-.4-.2-.4h-.2c-.4.1-.7.3-1 .6l-.9.9c-.2.2-.4.3-.6.5-.1.1-.2.1-.3.2h-.4c-.1 0-.2 0-.2.1-.1.1-.1.2-.1.2v.1c0 .1.1.1.2.1h.6c.2 0 .4 0 .6.1.1.1.2.2.3.2.1.1.2.1.3 0s.1-.2.1-.3c.1-.3.3-.6.5-.8s.5-.4.6-.6l.1-.1c-.1-.2 0-.2 0-.2m4.5-3.1s-.1.1 0 0l-.1.1c-.2-.1-.5-.2-.6-.3s-.2-.4 0-.5c.1-.1.3-.1.4-.1s.4-.1.5 0c0 .1-.2.6-.2.8"/></g><g fill="#fff"><circle cx="122" cy="80.5" r="7.8"/><circle opacity=".2" cx="122" cy="80.5" r="7.66192%"><animate attributeType="SVG" attributeName="r" begin="0s" dur="1.5s" repeatCount="indefinite" from="5%" to="10%"/><animate attributeType="CSS" attributeName="stroke-width" begin="0s" dur="1.5s" repeatCount="indefinite" from="3%" to="0%"/><animate attributeType="CSS" attributeName="opacity" begin="0s" dur="1.5s" repeatCount="indefinite" from="1" to="0"/></circle></g></svg>