<svg xmlns="http://www.w3.org/2000/svg" width="100%" height="100%" fill-rule="evenodd"><g fill="#b12a2e"><path d="M129.765 58.046c.02.307-.4.57-.562.684-1.12.742-1.194 1.195-1.9 1.677-.1.062-.188.14-.193.248-.006.12.108.237.063.35-.042.104-.194.123-.245.223-.068.133.096.273.245.294s.314-.007.434.082c.143.106.143.317.13.494l-.095 1.176c-.01.107-.016.22.032.316.075.15.274.232.296.4.018.137-.098.257-.223.315s-.266.076-.388.14c-.036.02-.072.044-.1.08-.02.042-.016.092-.01.138a6 6 0 0 1 .033.727c-.003.142-.012.3-.087.4-.13.206-.402.26-.645.27s-.505.004-.702.146l-.037.116c0 .16.098.316.242.385.158.076.357.053.495.16.127.1.16.28.14.44-.045.394-.327.712-.548 1.04-.247.366-.43.775-.537 1.203-.086.343-.133.716-.36.987-.32.382-.898.434-1.376.3-.264-.074-.523-.197-.798-.186s-.57.226-.537.5c.018.147.123.266.228.37a4.72 4.72 0 0 0 1.179.851c.232.118.48.22.672.395s.326.448.25.698c-.077.256-.338.405-.58.517-.518.238-1.105.426-1.65.258-.325-.1-.642-.326-.972-.245-.16.04-.295.147-.4.267-.496.52-.762 1.44-.423 2.073.074.138.012.314-.1.433s-.24.2-.35.3c-.2.205-.32.5-.42.767l-.517 1.4c-.145.394-.292.8-.504 1.154s-.493.695-.857.904c-.352.203-.787.3-1.032.624-.118.156-.216.376-.4.385-.06.003-.116-.017-.17-.035-.263-.1-.522-.07-.785-.16-.165.084-.366.026-.527-.065s-.306-.215-.48-.273c-.3-.1-.66.034-.824.305-.054.1-.1.2-.16.267-.185.197-.5.134-.76.233-.327.13-.47.5-.667.8a1.95 1.95 0 0 1-.855.705c-.148.062-.308.106-.467.085s-.294-.103-.427-.185a11.09 11.09 0 0 1-1.691-1.296c-.708-.66-1.368-1.523-1.297-2.5.026-.35.12-.775-.156-.992s-.676-.02-.96.186c-.5.367-1 .778-1.58.975-.154.052-.325.095-.426.223-.066.083-.1.192-.1.298-.05.67.608 1.263 1.28 1.262.205 0 .456-.023.57.148.067.103.052.236.077.356.053.258.282.44.512.567s.483.23.657.428c.232.262.293.66.572.87.184.14.426.168.638.258s.417.3.357.523c-.038.14-.168.234-.3.314l-1.626 1.128c-.372.302-.758.623-1.227.722-.417.1-.864-.008-1.27.126-.26.086-.48.26-.7.413-.615.406-1.318.657-2.013.903-.466.165-.937.332-1.43.386-.66.073-1.408-.035-1.92.4-.258.215-.455.563-.8.588-.212.016-.516-.047-.673.097-.68.62-1.68.687-2.597.722-1.3.05-2.608.1-3.902-.044-.9-.1-1.895-.27-2.638.246-.193.135-.374.317-.607.342-.264.028-.502-.153-.763-.2-.415-.076-.806.2-1.213.298-.475.126-.976.037-1.46-.053-.096-.018-.196-.038-.27-.1-.105-.088-.132-.236-.166-.37-.26-1.005-1.436-1.666-2.427-1.365-.092.028-.2.063-.28.036s-.154-.106-.238-.15c-.176-.1-.423.035-.454.23.046-.197-.086-.42-.28-.472a.41.41 0 0 0-.481.265c.07-.342.017-.718-.192-.997s-.543-.356-.886-.297c-.27.047-.44.307-.664.467a1 1 0 0 1-.293.144c-.543.165-1.166-.148-1.682.1-.125.057-.238.146-.372.178-.275.066-.542-.117-.82-.173-.34-.068-.713.074-.92.35-.1.147-.186.335-.348.42-.278.146-.6-.1-.854-.256-.366-.23-.867-.385-1.285-.276-.4.1-.76-.233-.947-.588s-.285-.77-.562-1.06c-.3-.304-.717-.418-1.085-.618l-.808-.5c-.284-.136-.628-.2-.9-.06a.74.74 0 0 0-.24 1.067c.22.28.677.498.565.836-.264.175-.623.034-.87-.163s-.465-.455-.77-.543c-.363-.105-.742.06-1.1.205-.607.252-1.297.448-1.9.214-.645-.245-1.033-.893-1.565-1.332-.062-.05-.13-.1-.207-.114-.128-.022-.25.055-.362.124-.688.426-1.502.644-2.3.618-.436-.014-.87-.097-1.305-.06-.262.022-.523.088-.785.063-.35-.033-.663-.224-1-.327-1.265-.388-2.597.502-3.913.363-1-.106-1.736-.697-2.748-.6-.116.247-.37.423-.644.442l-1.6-1.967c-.4-.508-.96-1.07-1.6-.943-.54.107-.86.664-1.024 1.2s-.263 1.102-.638 1.504c-.424.455-1.096.57-1.607.924-.687.475-1.078 1.372-1.874 1.624-.243.076-.5.087-.725.224-.27.172-.4.5-.57.762-.643.925-1.977.977-2.942 1.556-.723.434-1.288 1.195-2.12 1.338-.438.075-.894-.038-1.33.054-.5.103-.884.45-1.315.7-1.112.65-2.475.678-3.757.56-.986-.1-2.05-.243-2.9.252-.184.106-.355.24-.555.3-.455.16-.963-.046-1.344-.343s-.685-.684-1.073-.972c-.13-.096-.28-.183-.442-.17s-.3.125-.452.184c-.644.247-1.296-.486-1.98-.4-.766.086-1.04 1.043-1.136 1.8a2.87 2.87 0 0 0-2.595-1.949c-.628-.015-1.296.176-1.86-.098-.735-.356-1.42-1.277-1.186-2.06.347-1.168.252-2.463-.262-3.568-.183-.394-.422-.78-.456-1.214-.027-.342.078-.68.167-1 .298-1.107.433-2.258.4-3.405-.01-.308-.033-.627-.182-.897a1.16 1.16 0 0 0-1.169-.552c-.453.07-.847.4-1.014.84-.215.55-.08 1.165-.1 1.753-.005.085-.015.176-.067.243-.08.104-.232.115-.364.118-.226.005-.502-.02-.6-.225-.042-.1-.037-.194-.035-.293a3.2 3.2 0 0 0-.47-1.714c-.1-.163-.267-.337-.45-.283-.222.065-.226.37-.207.602.038.463-.024.948-.266 1.344s-.685.686-1.148.66c.018-.603.033-1.224-.182-1.788-.056-.147-.128-.3-.162-.444-.13-.58.3-1.14.33-1.733.02-.283-.048-.565-.115-.84-.06-.245-.12-.493-.227-.72-.123-.264-.305-.496-.485-.725l-.853-1.085c-.08.248-.278.435-.423.652s-.23.52-.073.728c.068.1.17.145.246.23.26.288.097.736.104 1.123.01.464.287.902.247 1.365-.05.572-.556.982-1.032 1.302v.165a3.65 3.65 0 0 1 .998 2.314c.034.66-.113 1.312-.178 1.97a16.54 16.54 0 0 0-.057 2.509l8.743 11.108 6.13 8.5 10.982 14.366 14.287 18.424L63.485 144l84.802 11a25.22 25.22 0 0 1 1.578-2.199c.377-.47.776-.935 1.005-1.492.14-.343.213-.7.27-1.077.16-1.035.23-2.033.114-3.074-.133-1.2-.267-2.387-.2-3.583l.2-2.146c.122-1.584.076-3.326-.03-4.9a5.24 5.24 0 0 0 1.104-3.048c.01-.28-.005-.563.043-.84.132-.754.696-1.344 1.15-1.96.86-1.167 1.247-2.603 1.988-3.85a16.18 16.18 0 0 0 1.891-4.796c.44-2.007.45-4.104 1.36-5.945.3-.625.93-1.022 1.428-1.5.96-.94 1.546-2.276 1.508-3.62-.063-2.26 1.14-4.36 2.5-6.165.505-.67 1.07-1.465.847-2.275-.064-.23-.188-.44-.265-.664-.17-.494-.106-1.033-.04-1.55.068-.537.03-.92.132-1.45a1.73 1.73 0 0 0-.435-1.494c-.34-.36-.82-.55-1.282-.727s-.942-.36-1.295-.707-.545-.913-.316-1.353c.256-.5.884-.622 1.432-.7 1.1-.14 2.266-.27 3.154-.935.415-.3.748-.725 1.184-1.007.467-.302 1.112-.37 1.663-.3l2.005-.012c.2-.001.458.1.406.274a2.89 2.89 0 0 0 1.54-.104c.212-.075.42-.176.642-.204s.476.032.603.22c.05.073.076.16.136.225s.144.1.227.126c.887.285 1.833-.115 2.677-.508.095-.044.196-.094.25-.184.046-.08.05-.18.103-.252s.146-.106.232-.134l2.12-.688c.527-.17 1.06-.343 1.613-.4.606-.052 1.258.04 1.786-.262.063-.036.125-.08.162-.14.043-.07.05-.158.05-.24a1.98 1.98 0 0 0-.377-1.154c-.283-.387-.695-.657-1.027-1.002s-.578-.812-.522-1.288c.072-.608.13-1.275-.207-1.785-.134-.202-.325-.368-.415-.593-.136-.335-.044-.777-.312-1.02-.2-.17-.476-.16-.727-.115a4.37 4.37 0 0 0-1.091.343c-.32.15-.624.338-.96.45s-.72.143-1.03-.023c-.13-.07-.242-.17-.37-.242-.653-.367-1.456.08-2.204.063-.185-.004-.378-.04-.523-.156s-.027-.2-.01-.396c.08-.97.425-1.893.765-2.803.142-.38.285-.762.508-1.1.156-.235.35-.446.478-.696.22-.426.234-.924.235-1.403.001-.52-.02-1.075-.314-1.504-.398-.58-1.213-.8-1.525-1.43-.228-.46-.12-1-.033-1.515.184-1.072.247-2.2-.107-3.227-.095-.276-.22-.546-.252-.837s.056-.617.3-.776c.144-.094.32-.117.48-.175s.32.022.27-.142c-.274-.9.13-1.96.933-2.45.148-.1.322-.178.38-.342.053-.154-.016-.32-.1-.466-.5-.965-1.366-1.86-1.262-2.944.05-.525.33-1 .44-1.515.33-1.588-1.012-3.196-.607-4.766.103-.397.312-.757.52-1.1.688-1.178 1.4-2.386 2.475-3.227a5.5 5.5 0 0 1 4.673-.986c.37.094.743.235 1.015.503.386.38.5.943.608 1.476l.437 3.085c-.4.084-.764-.214-1.088-.46s-.783-.463-1.117-.23c-.264.183-.304.58-.17.872s.4.5.666.68c.385.26.817.518.997.948.102.244.1.515.135.778.102 1.055.558 2.105 1.384 2.768s2.045.866 2.972.357 1.4-1.562 1.826-2.527 1.003-1.996 1.998-2.354c.643-.23 1.463-.2 1.86-.746.184-.26.23-.602.43-.847.545-.662 1.808-.215 2.335-.892.104-.133.164-.297.277-.423.223-.25.592-.3.88-.46.596-.348.78-1.206.28-1.68-.097-.1-.212-.17-.273-.3-.07-.13-.06-.287-.05-.434.045-.622.117-1.262-.068-1.857-.2-.614-.636-1.12-.87-1.718-.24-.613-.247-1.3-.245-1.947l.046-3.22c.017-.666.04-1.336.195-1.984.186-.78.56-1.5.715-2.296.144-.728.097-1.478.05-2.218-.026-.395-.062-.818-.316-1.12-.16-.2-.384-.308-.566-.474s-.324-.423-.238-.655c.044-.12.142-.2.22-.308.465-.587.05-1.26.037-2l.028-3.1c.038-.604.104-1.2.042-1.813-.055-.53-.2-1.044-.407-1.538-.13-.327-.284-.65-.338-1-.044-.282-.03-.596-.213-.816-.092-.1-.222-.18-.353-.24a3.26 3.26 0 0 0-1.251-.286c-.312-.008-.64.026-.924-.102-.264-.12-.45-.36-.625-.6-.17.292-.524.42-.855.492s-.783.134-1.05.34c-.113-.002-.228-.022-.325-.08-.197-.114-.284-.35-.355-.565l-.437-1.334-.952-.1c-.187-.02-.38-.04-.546-.13-.218-.117-.364-.342-.44-.58s-.1-.488-.102-.736l-.06-1.18c-.01-.214-.02-.434.055-.634.206-.54.955-.743 1.106-1.302.064-.235.001-.5-.126-.698a2.14 2.14 0 0 0-.5-.514c-.13-.094-.268-.185-.346-.323-.102-.182-.08-.408-.146-.604-.06-.174-.188-.318-.247-.493-.108-.32-.003-.678.223-.928l.7-.763c.15-.164.302-.336.37-.547.118-.362-.037-.754-.23-1.082-.062-.105-.13-.212-.14-.333-.012-.156.073-.3.134-.442.183-.43.16-.912.17-1.377.016-.658.108-1.314.274-1.95.12-.46.28-.947.136-1.4-.063-.2-.18-.376-.266-.566-.138-.3-.2-.648-.267-.977-.06-.253-.138-.502-.232-.745-.035-.1-.074-.18-.148-.242-.157-.13-.4-.064-.575.02-.376.173-.722.406-1.095.588s-.784.315-1.196.268c-.096-.01-.193-.032-.3-.016-.173.028-.307.17-.4.324-.242.444-.16.987-.224 1.5-.043.326-.15.64-.255.95l-.73 2.143c-.126.37-.2.836-.465 1.114a3.99 3.99 0 0 0-.823 1.22c.23.05.4-.215.504-.422a2.2 2.2 0 0 1 .769-.8c.14.273-.103.573-.2.864-.092.27-.054.574-.15.844-.097.276-.32.484-.534.682l-1.607 1.48c-.124.114-.25.232-.33.382-.113.217-.1.473-.13.716-.053.638-.277 1.247-.5 1.847-.044.12-.1.257-.238.27-.1.012-.208-.1-.23-.198s.01-.22.044-.326a5.73 5.73 0 0 1 .563-1.207c.127-.205.273-.45.182-.673-.243-.018-.43.2-.577.395l-3.146 3.875c-.476.538-.978.937-1.684 1.066-.22.04-.457.022-.66.12-.26.128-.407.426-.67.542-.227.1-.504.05-.72.175-.104.06-.183.158-.257.254-.583.756-1.066 2.082-2.02 2.1-.36.01-.676.252-.9.527s-.415.595-.668.853c-.223.228-.495.402-.723.624a2.36 2.36 0 0 0-.7 1.5c-.015.208-.005.43-.106.6-.13.235-.408.344-.672.388s-.54.042-.8.137c-.186.07-.353.194-.547.238-.28.062-.6-.046-.846.078-.2.1-.377.304-.564.208-.14-.07-.152-.264-.137-.42.048-.52.17-1.028.3-1.53.037-.13.032-.33-.103-.34-.084-.006-.144.076-.187.148a19.34 19.34 0 0 0-1.145 2.262c-.282.663-.512 1.5-1.113 1.886.137.283.22.63.065.903-.1.2-.317.3-.424.5-.125.226-.086.502-.078.76s-.045.558-.27.685c-.17.096-.418.08-.516.25-.116.2.1.455.03.677a2.43 2.43 0 0 1-.608.075c-.07 0-.153-.014-.18-.077-.042-.1.096-.173.2-.228a.46.46 0 0 0 .22-.332c.006-.048.002-.103-.036-.134s-.106-.02-.158-.001c-.524.193-.914.642-1.2 1.116s-.524 1-.86 1.438c-.213.284-.466.535-.717.785-.15.15-.3.306-.516.368-.15.045-.3.035-.464.06-.302.05-.502.226-.692.45l-.642.7-1.34 1.615c-1.22 1.568-2.074 3.348-3.447 4.785l-.618.7-1.8 2.127c-.964 1.14-1.7 2.472-2.782 3.5a13.4 13.4 0 0 1-4.514 2.827c-.348.13-.712.253-.983.508-.226.213-.366.5-.535.76-.445.687-1.193 1.185-1.926 1.544a7.03 7.03 0 0 0-1.767 1.237c-.245.236-.48.495-.8.636-.322.147-.712.16-.98.4-.172.15-.286.383-.504.45-.096.03-.214.03-.278.107-.026.033-.04.075-.043.117-.018.186.107.352.172.527.08.216.07.454.06.684-.01.207-.028.434-.17.584-.08.083-.2.134-.26.225-.06.08-.087.185-.17.24-.118.076-.28-.001-.366-.112a1.78 1.78 0 0 1-.223-.355c-.244-.507-1.16-.692-1.275-.523-.025.037.001.072.006.143M0 75.37c-.001.154.132.27.263.346.028.016.057.03.078.057.017.02.026.046.04.068.052.08.156.105.25.1s.193-.003.277.04c.014.007.028.015.043.01.02-.006.03-.03.034-.052.053-.267-.038-.716-.284-.876s-.7-.047-.702.298m5.046 3.864c-.074.095-.06.226.068.292.108.056.26.05.37.104.125.062.138.165.22.246.067.066.2.18.283.1.06-.072-.08-.3-.108-.36-.06-.156-.1-.312-.136-.47-.08-.275-.563-.074-.697.1m13.995 4.547c.065.125.206.183.34.198s.27-.003.403.017a.62.62 0 0 0 .043-.28c-.007-.078-.03-.158-.006-.232.013-.04.04-.075.062-.1a.81.81 0 0 0 .031-.785c-.048-.1-.113-.17-.158-.263-.05-.102-.075-.216-.1-.33-.116.05-.235.104-.33.2s-.17.212-.164.346c.005.123.075.242.052.362-.012.06-.046.115-.076.17a1.21 1.21 0 0 0-.135.448c-.008.092-.004.188.038.27m-.463 1.245c-.166.063-.36.165-.378.36-.012.138.075.284.02.408-.024.053-.07.1-.107.13a.52.52 0 0 0 .005.648c.054.058.122.103.16.175.024.046.034.102.064.145s.074.066.12.08c.2.06.412-.076.47-.285.034-.123.016-.255.01-.383-.01-.263.035-.524.055-.786.008-.108.01-.22-.02-.322s-.1-.193-.206-.2c-.064-.01-.13.014-.2.038m18.657 4.616c-.027-.042-.064-.074-.097-.1a.55.55 0 0 1-.126-.424c.002-.02.007-.04.02-.053s.03-.02.047-.025c.172-.05.355-.027.533-.036.105-.006.223-.018.303.054.06.055.08.143.1.226a1.16 1.16 0 0 1-.089.563c-.018.044-.04.088-.08.112-.03.02-.066.025-.1.03a1.76 1.76 0 0 1-.291.009c-.022-.002-.044-.003-.063-.015s-.03-.027-.04-.045c-.05-.088-.052-.2-.106-.284M44.466 77.1c.23-.078.487-.12.736-.092s.5.13.63.294c.163.193.168.44.17.67l-.022.78c-.02.215-.054.433-.164.63-.188.337-.57.578-.9.84a5.01 5.01 0 0 0-.604.562c-.1.12-.282.262-.45.198-.068-.026-.1-.08-.153-.128a1.73 1.73 0 0 0-.487-.381l-.394-.195a1.6 1.6 0 0 1-.821-1.324c-.027-.5.153-1 .362-1.5.02-.048.044-.1.095-.13.064-.04.154-.042.236-.04l.723.008c.2.002.38.004.562-.036.17-.037.324-.1.486-.164m-13.755-5.5c.093.043.2.083.263.16.063.067.1.156.134.245.12.315.207.646.256.983.183-.058.3-.25.375-.44.145-.37.187-.78.228-1.18.025-.242.05-.5 0-.725-.04-.195-.128-.374-.215-.55-.18-.365-.362-.732-.605-1.052-.022-.03-.055-.062-.088-.048-.025.01-.035.042-.043.07-.077.275-.23.524-.432.708-.093.084-.196.154-.274.253a1.16 1.16 0 0 0-.181.38 3.8 3.8 0 0 0-.125.529.32.32 0 0 0 0 .15c.017.052.057.1.097.124a2.7 2.7 0 0 0 .61.396"/><path d="M65.23 79.982c.143.02.3.03.43-.004s.268-.113.316-.226c.084-.198-.087-.38-.175-.555-.1-.217-.088-.416-.094-.646-.008-.272-.16-.474-.497-.534-.847-.15-1.44.693-1.125 1.3.196.37.677.606 1.144.674M64 87.6c0 .032-.001.065-.014.094s-.04.05-.067.068c-.258.186-.505.387-.8.113-.148-.143-.165-.377-.078-.57.1-.24.332-.307.552-.295.3.017.397.256.395.6m8.956 1.673c-.07-.146-.194-.2-.308-.225l-.107-.032c-.01-.004-.022-.007-.033-.004-.02.007-.035.036-.047.062a.9.9 0 0 1-.233.308c-.052.043-.108.076-.154.133a.33.33 0 0 0-.068.238c.12.053.233.134.35.2s.246.1.367.046c.1-.037.192-.13.243-.268a.63.63 0 0 0-.01-.449m1.52-7.104c-.18.14-.362.303-.437.54-.082.26-.016.547.05.813l.12.48c.06-.46.22-.902.46-1.273.102-.157.22-.302.3-.475.025-.055.047-.124.02-.178-.02-.04-.058-.06-.097-.067-.147-.032-.3.064-.416.162M78 84.493c-.007-.18-.246-.3-.48-.374-.318-.088-.664-.1-1.005-.117-.482-.01-.994.015-1.393.208-.045.022-.1.047-.1.084s-.01.085.004.126c.046.15.122.324.326.37.18.04.427-.024.525.1.027.03.035.07.074.095s.084.023.13.024c.466.01.932-.01 1.393-.06a.85.85 0 0 0 .239-.05.49.49 0 0 0 .188-.152c.06-.074.114-.156.1-.242m4.13 1.467c.288.1.663-.036.796-.263s.07-.498-.074-.72-.36-.412-.547-.615c-.097-.105-.2-.216-.326-.3s-.33-.103-.468-.03c-.057.03-.1.073-.14.116-.137.143-.277.3-.336.462-.047.135-.04.277-.03.417.01.112.025.23.1.32.073.08.188.13.296.18a3.34 3.34 0 0 1 .47.274c.078.055.154.114.25.15m-8.84-3.8c-.076.096-.184.1-.285.115-.08.005-.165.005-.238-.048-.12-.088-.172-.295-.265-.438-.142-.216-.366-.263-.57-.25-.093.005-.2.022-.267.096-.118.113-.163.327-.2.52a4.37 4.37 0 0 1-.244.707c-.02.047-.044.094-.078.12-.04.03-.1.02-.135.001-.3-.13-.478-.603-.716-.92-.057-.074-.12-.143-.195-.166s-.15-.001-.225.025c-.238.083-.473.193-.717.216s-.505-.057-.68-.304c-.12-.17-.2-.404-.28-.615-.078-.186-.176-.37-.185-.588-.016-.378.253-.673.513-.696s.507.14.748.28.5.26.757.148c.134-.06.248-.184.37-.282.48-.384 1.056-.37 1.603-.397.14-.007.285-.018.42-.085.168-.083.3-.247.464-.374.162-.133.343-.228.53-.225s.376.116.488.332c.115.223.133.534.075.8a1.62 1.62 0 0 1-.33.674c-.077.095-.163.184-.208.316-.113.324.052.802-.136 1.04m4.68-3.96c.116-.438-.205-.898-.6-1.076s-.865-.14-1.3-.082c-.2.025-.384.056-.543.164-.283.193-.375.57-.425.917a9.3 9.3 0 0 0-.096 1.461c.001.076.004.156.04.222.056.1.174.142.285.163.308.06.65.017.893-.186s.355-.586.2-.866c-.038-.07-.092-.136-.097-.215l.66-.054c.24-.02.483-.04.706-.13a.47.47 0 0 0 .162-.094.46.46 0 0 0 .125-.225M76.6 74.66a.48.48 0 0 0 .1.226c.057.066.178.117.297.114.166-.004.286-.103.383-.192l.408-.374a.86.86 0 0 0 .17-.19c.053-.1.045-.207.036-.312l-.038-.438c-.01-.106-.03-.226-.157-.287-.155-.074-.378-.02-.555-.067-.06-.016-.112-.042-.167-.065-.307-.124-.763-.1-.958.1-.1.115-.125.26-.115.396.006.1.024.182.098.256.066.065.17.1.247.168.23.17.2.43.244.657m-2.68-3.567c-.185-.135-.468-.114-.68-.015-.04.02-.08.04-.113.07-.066.063-.086.15-.104.234-.006.027-.01.056-.001.082s.032.044.056.06c.114.08.264.127.342.235.036.05.053.1.1.16s.108.1.172.07c.055-.018.08-.072.1-.12l.197-.487c.022-.055.045-.113.03-.17-.012-.05-.05-.1-.093-.122m10.237 10.655c.207.207.486.235.747.25.104.007.23-.004.277-.123.017-.045.02-.098.038-.142.06-.14.22-.096.345-.116.14-.023.26-.157.328-.317s.093-.345.108-.526c.02-.222.018-.475-.105-.63s-.33-.153-.507-.133l-.04.004c-.143.015-.287.03-.424.08-.146.053-.283.144-.405.26-.23.22-.403.533-.485.884a.65.65 0 0 0-.02.24.48.48 0 0 0 .142.268m8.825-1.332c.044-.066.034-.145.012-.217-.016-.053-.04-.108-.092-.146-.108-.08-.283-.053-.426-.018-.425.102-.837.232-1.232.4a.53.53 0 0 0-.188.108c-.1.1-.02.27.124.348s.326.093.5.107c.244.02.5.034.714-.07.022-.01.044-.025.054-.044.016-.028.002-.06.002-.1-.002-.095.117-.164.23-.206s.242-.078.3-.163"/><path d="M92.916 79.104c.066.025.092.1.083.18s-.046.134-.07.2c-.036.105-.04.22-.092.318-.118.225-.464.26-.657.094s-.227-.47-.123-.7c.025-.056.06-.1.1-.146.148-.105.356-.003.532-.045l.217.1m-7.48 6.575c.53-.296 1.193-.327 1.735-.606.367-.2.658-.48.962-.75.55-.488 1.26-.94 2.012-.827.445.068.9.33 1.314.165.326-.13.5-.484.806-.633.282-.134.633-.08.92-.203.202-.087.35-.252.5-.394a2.7 2.7 0 0 1 .604-.402c.043-.02.094-.04.14-.024.03.012.05.04.067.068.202.363-.217.842.005 1.196.1.158.3.237.43.377.08.087.128.196.2.28.236.242.644.2.993.254.185.023.364.07.543.12l1.28.346c.37.1.7.417.9.72.065.098.122.206.123.32a.72.72 0 0 1-.076.276l-.37.87c-.06.137-.12.278-.225.388-.282.292-.796.276-1.178.107-.16-.07-.3-.163-.48-.212s-.37-.048-.506.057a.61.61 0 0 0 .03.297c-.533.007-1.172-.106-1.374-.563-.05-.1-.067-.235-.136-.337-.06-.1-.157-.155-.25-.217l-.622-.416c-.028-.02-.057-.038-.1-.043-.073-.012-.14.045-.174.107-.2.374.3.903-.014 1.218-.07.074-.173.115-.272.153l-1.3.502c-.208.08-.437.164-.655.107-.122-.032-.226-.106-.342-.15-.275-.108-.6-.053-.887-.1-.654-.083-1.14-.596-1.75-.83-.33-.127-.735-.2-.9-.493a4.36 4.36 0 0 1-1.997.245c-.1-.01-.184-.024-.262-.07-.155-.1-.207-.285-.17-.45s.146-.3.254-.447c.066.006.113.018.17-.013m18.465 1.003c.12-.237.16-.53.037-.766-.08-.154-.216-.272-.35-.386l-.36-.308a.62.62 0 0 0-.135-.096c-.073-.035-.157-.04-.24-.045l-1.42-.082a.53.53 0 0 0-.229.02c-.125.05-.2.2-.192.32-.003.216.13.4.257.587l.3.434a.89.89 0 0 0 .153.168c.073.05.164.07.252.08.316.037.655-.023.94.115.2.098.378.294.602.27.17-.02.295-.163.372-.312m.557-1.765c.018.026.036.054.064.068.035.018.077.01.115.001.102-.022.2-.047.284-.12.096-.1.116-.244.07-.37s-.146-.222-.26-.3-.242-.106-.368-.144l-.193-.058c-.034-.01-.076-.02-.103.004-.02.018-.023.046-.025.07l-.024.258a.33.33 0 0 0 .002.108c.02.086.104.14.174.194a1.19 1.19 0 0 1 .263.275"/><path d="M104.313 84.423a1.66 1.66 0 0 1 .554.12c.25.104.454.276.696.395.126.062.308.1.4.002.063-.068.044-.174-.02-.243a.61.61 0 0 0-.252-.14c-.094-.033-.192-.06-.27-.113-.095-.064-.154-.16-.24-.23-.16-.132-.4-.17-.607-.2L104.07 84c-.02 0-.044.001-.057.015s-.012.028-.013.044c0 .13.02.288.155.34.05.02.105.02.158.023m-1.99 3.5a.36.36 0 0 1-.118-.093.58.58 0 0 1-.086-.188 2.99 2.99 0 0 1-.12-.594c.3-.137.653-.024.873.28.053.072.1.156.12.253a.34.34 0 0 1 .003.123c-.007.04-.025.067-.044.094-.153.22-.42.234-.627.123m6.115-11.592c.4-.01.806-.28 1.02-.696.078-.152.134-.322.232-.457s.258-.23.397-.164l-.135 1.2a.78.78 0 0 0 .006.306c.034.116.12.198.2.276l.732.776c.06.07.124.16.105.255-.016.082-.088.13-.157.148-.172.042-.347-.062-.487-.2s-.265-.283-.423-.374c-.243-.14-.525-.106-.794-.102a3.53 3.53 0 0 1-.931-.109c-.05-.012-.1-.028-.134-.073-.026-.036-.035-.085-.044-.132-.038-.216-.06-.488.095-.6.1-.072.2-.06.32-.063"/><path d="M110.475 77.2c.365.224.622.6.852.977l.482.843c.083.156.166.32.186.498s-.034.378-.175.476c-.134.093-.307.075-.467.07-.06-.002-.12 0-.17.034-.04.028-.067.074-.092.12l-.352.634c-.026.045-.053.094-.098.118a.22.22 0 0 1-.096.022c-.28.015-.563-.118-.742-.35-.172-.223-.244-.518-.404-.752-.207-.303-.54-.475-.874-.6-.128-.044-.263-.085-.36-.184-.112-.115-.155-.288-.164-.454-.01-.194.028-.4.172-.53.1-.082.232-.102.35-.147a.91.91 0 0 0 .443-.364c.112-.176.175-.4.34-.52.1-.073.22-.098.34-.106a1.41 1.41 0 0 1 .829.207m2.128-.926c-.118-.046-.256.007-.344.1a.91.91 0 0 0-.182.334c-.086.238-.14.55.056.707.12.096.292.096.413.2.143.1.175.314.166.496s-.047.368.002.543c.027.1.082.2.145.27.218.277.55.464.7.784.048.1.082.22.176.275.133.08.3-.017.388-.153s.084-.3.117-.453a1.44 1.44 0 0 1 .422-.753c.088-.082.187-.154.25-.258.1-.146.1-.328.087-.5-.004-.286-.02-.6-.218-.804-.142-.145-.348-.2-.526-.296-.254-.138-.45-.364-.683-.535s-.544-.3-.807-.17c-.1.04-.177.128-.163.228m3.21-.753c-.044.06-.038.15-.06.227a.33.33 0 0 1-.207.217c-.1.033-.2.03-.284.027-.024-.001-.048-.002-.07-.01s-.035-.023-.05-.04c-.093-.096-.147-.244-.142-.4a.51.51 0 0 1 .167-.375c.072-.063.174-.095.25-.04.04.03.075.086.124.086.028.001.054-.018.074-.04.038-.04.065-.092.102-.134s.1-.07.138-.046c.04.02.063.074.082.123l.04.1c.012.033.025.067.02.102-.012.1-.132.1-.186.185m2.19 2.1c-.04-.245-.167-.486-.362-.562a.55.55 0 0 0-.316-.01c-.097.02-.2.057-.263.148s-.07.252.01.32c.036.03.08.037.123.05a.5.5 0 0 1 .3.275c.025.05.045.104.082.14.07.073.18.054.263.007.062-.035.122-.087.147-.164a.44.44 0 0 0 .004-.204m.095-4.768c.3.363.9.387 1.277.673.25.185.402.464.63.672a1.44 1.44 0 0 0 .708.346c.1.02.24.04.285.135.02.046.017.098.013.147l-.1 1.08c-.002.022-.004.045-.015.065-.033.06-.13.062-.2.024s-.097-.1-.143-.154c-.23-.263-.657-.235-.987-.373-.22-.092-.396-.26-.594-.4a2 2 0 0 0-1.117-.32c-.16.003-.32.024-.474-.013-.466-.114-.686-.72-1.165-.765-.197-.018-.386.067-.576.118s-.425.054-.554-.1c-.1-.1-.102-.28-.044-.416s.167-.246.272-.353l.96-.97c.073-.074.15-.15.243-.197.103-.05.226-.065.34-.038.208.05.4.077.6.148.312.1.66.028.993.042a.41.41 0 0 1 .193.043c.058.033.1.096.087.16-.016.074-.098.116-.17.147l-.257.1c-.07.03-.154.14-.224.17"/><path d="M119.382 73.03l-.14.05c-.048.012-.1.013-.15.013l-.638.01c-.15.003-.32.015-.408.136-.067.1-.06.222-.007.32a.65.65 0 0 0 .242.232 1.55 1.55 0 0 0 .893.206.98.98 0 0 0 .406-.1c.2-.126.298-.36.385-.58.022-.055.044-.115.027-.172-.032-.107-.172-.13-.284-.134s-.223-.006-.328.03m2.444-1.454c.076.048.16.104.175.2.018.114-.107.207-.227.22-.183.02-.355-.075-.5-.17l-1.035-.7c-.06-.044-.122-.1-.16-.15s-.05-.14-.056-.2a2.49 2.49 0 0 1 .006-.518c.01-.1.035-.192.118-.236.1-.053.223.006.3.077.228.187.365.452.535.7a3.06 3.06 0 0 0 .845.8m-4.208-2.963c-.114.15-.294.266-.46.386a6.07 6.07 0 0 0-.818.7c-.222.237-.423.53-.3.804.148.328.68.458 1.146.47s.935-.04 1.4-.095c.18-.02.385-.055.474-.174.093-.125.005-.3-.14-.384s-.332-.143-.503-.208-.34-.164-.384-.303c-.07-.223.197-.417.42-.575.504-.355.908-.78 1.267-1.223.115-.143.228-.3.27-.454s-.002-.347-.162-.463c-.17-.123-.44-.145-.666-.1s-.414.172-.578.3c-.348.27-.617.597-.782.95-.055.118-.1.24-.182.35m4.43 2.237c.062.083.2.1.303.1l.412.033c.04.003.08.005.112-.016.144-.1.15-.566.1-.707s-.222-.236-.385-.265-.33.003-.43.127c-.1.138-.2.57-.1.718m.87-1.895c.32.067.7.088.947-.084.05-.034.096-.076.12-.128.05-.118-.036-.25-.16-.32s-.28-.1-.428-.106l-.34-.04c-.083-.01-.17-.02-.24-.06s-.12-.112-.093-.177c-.18-.054-.384-.047-.556.02-.045.018-.1.04-.12.072-.052.055-.057.132-.043.2.034.17.17.32.34.42a1.83 1.83 0 0 0 .573.2m-.485-2.02c.052-.08.03-.198.062-.292.048-.14.193-.18.3-.26.197-.15.265-.5.144-.738-.075-.147-.2-.242-.323-.33l-.372-.272c-.023-.017-.048-.035-.076-.032-.033.004-.058.035-.074.07-.07.153.006.357-.064.5-.035.08-.102.128-.156.2s-.098.155-.07.237c-.126.032-.256.025-.383.042s-.26.062-.347.176-.107.3-.015.417c.165.192.497-.04.65.167.024.032.04.073.068.103.045.047.108.055.167.06l.255.023c.084.007.183.008.235-.07m3.238-2.042l.27-.444c.053-.1.086-.246.013-.348-.096-.133-.323-.127-.468-.04s-.236.232-.345.355c-.197.222-.468.387-.767.468-.13.034-.277.065-.342.17-.036.058-.037.127-.034.194.015.302.162.642.48.728.295.08.6-.1.786-.33s.263-.508.407-.757"/><path d="M124.455 64.682c-.022.1-.1.166-.158.24-.13.164-.185.396-.235.62-.06.262-.113.57.024.783.147.23.466.254.542.532.017.062.037.15.1.144.027-.003.046-.032.062-.06.2-.356.22-.82.22-1.254l-.034-1.4c-.004-.1-.017-.22-.1-.262-.067-.038-.143.013-.203.065-.033.03-.07.063-.08.112-.017.072.024.153-.002.22-.02.055-.078.075-.104.126-.022.04-.02.096-.03.144m5.803-7.697c.032-.005.066-.01.093-.04.046-.05.06-.15.075-.237.087-.47.337-.788.52-1.17.027-.057.054-.12.06-.193.012-.15-.068-.278-.15-.325-.164-.093-.362.044-.44.307l-.06.24c-.062.213-.186.354-.262.552a1.39 1.39 0 0 0-.077.622c.006.06.017.124.04.17.05.1.13.087.203.076"/><path d="M130.735 56c-.116-.005-.232.016-.34.05-.086.027-.172.064-.23.126s-.076.143-.094.22l-.06.276c-.01.046-.02.093-.005.138.023.074.104.123.184.16.035.016.073.03.113.03.072-.001.13-.05.173-.1s.08-.107.14-.14c.08-.042.193-.032.263-.087.035-.027.053-.066.067-.105.043-.116.06-.238.05-.36-.003-.04-.01-.08-.034-.116-.045-.064-.14-.1-.228-.093m29.196-26.535c.03-.073.06-.147.068-.23s-.017-.173-.073-.213-.117-.024-.168.014a.56.56 0 0 0-.124.158l-.37.594c-.048.066-.1.13-.137.205a1 1 0 0 0-.076.226 2.1 2.1 0 0 0-.042.665c.004.045.015.097.048.112.016.007.034.004.05-.002.2-.065.318-.32.414-.55l.408-.98m6.206-6.64c-.012.062-.013.14.106.17.07.017.16.008.224-.013a.65.65 0 0 0 .158-.082c.098-.066.2-.134.235-.212.02-.047.017-.095.01-.143a1.59 1.59 0 0 0-.077-.319c-.018-.053-.04-.107-.104-.15a.47.47 0 0 0-.29-.069c-.034.002-.067.01-.1.02-.016.01-.025.02-.034.03-.05.062-.102.124-.126.2-.037.098-.012.2-.002.298a.98.98 0 0 1-.011.281"/><path d="M168.416 21c.105-.036.206-.1.3-.16a.69.69 0 0 0 .278-.412c.033-.177-.047-.393-.195-.43-.053-.014-.108-.005-.16.008-.384.088-.733.33-1.05.607l-.924.872c-.187.162-.382.308-.578.45a1.05 1.05 0 0 1-.304.172c-.137.04-.28.017-.42.007-.078-.005-.162-.004-.227.05s-.095.15-.12.242c-.01.032-.02.065-.012.098.014.074.093.095.156.095.195.003.4-.037.584-.046s.4.016.566.137c.1.073.185.177.288.243s.243.085.33-.01c.074-.08.085-.213.1-.33.072-.324.284-.574.505-.777s.464-.38.643-.636c.033-.046.064-.096.107-.128.037-.028.08-.04.123-.054m4.448-3.102c-.012.04-.03.085-.064.093-.023.006-.046-.008-.067-.02-.192-.12-.457-.177-.623-.343-.117-.117-.162-.376-.028-.505.096-.092.258-.05.37-.052.125-.001.418-.143.5-.04.14.198-.018.67-.08.87"/></g><g fill="#fff"><circle cx="162" cy="45" r="7.846"/><circle opacity=".2" cx="162" cy="45" r="6.29428%"><animate attributeType="SVG" attributeName="r" begin="0s" dur="1.5s" repeatCount="indefinite" from="5%" to="10%"/><animate attributeType="CSS" attributeName="stroke-width" begin="0s" dur="1.5s" repeatCount="indefinite" from="3%" to="0%"/><animate attributeType="CSS" attributeName="opacity" begin="0s" dur="1.5s" repeatCount="indefinite" from="1" to="0"/></circle></g></svg>