<svg xmlns="http://www.w3.org/2000/svg" viewBox="0 0 176 166" width="150px" height="150px" fill-rule="evenodd"><g fill="#b12a2e"><path d="M159.36 69.626c-.087.187-.113.403-.202.6-.052.1-.127.212-.152.333s.025.276.136.3c.02-.035.05-.063.083-.084.116.045.166.223.094.33.214.04.435.001.645-.058.22-.06.44-.094.634-.22a1.25 1.25 0 0 1 .337-.171c.12-.033.257-.024.358.054.047.036.085.086.134.118.093.06.2.05.32.052s.232.026.3.128c.017.03.027.065.048.1a.19.19 0 0 0 .087.053c.204.066.42-.016.623-.084.283-.095.574-.162.868-.202.028-.004.057-.007.083.005.074.035.062.156.1.227.042.062.12.073.2.073.373.003.756-.163 1.1-.037.066.024.136.065.157.137s-.007.155.033.213c.02.03.055.045.083.07.036.032.057.08.086.12.097.134.263.174.407.24.252.115.48.3.568.582.045.145.038.32.14.426.06.064.148.087.217.14.15.12.17.35.267.52.144.25.432.342.692.428.5.163.985.374 1.45.63.096.053.196.112.25.215.02.035.03.077.06.103s.075.037.117.04a2.04 2.04 0 0 0 1.246-.265 4.41 4.41 0 0 1 .042-.789l.03-.247c.01-.206-.04-.4-.092-.607a.75.75 0 0 0-.066-.187c-.043-.076-.1-.132-.178-.184-.46-.356-.975-.63-1.374-1.063l-.527-.553c-.105-.103-.217-.2-.305-.318s-.152-.27-.143-.423c.001-.01.002-.023-.002-.034-.01-.037-.06-.035-.094-.043-.057-.013-.096-.067-.132-.116a3.64 3.64 0 0 0-.534-.597c.012-.28-.176-.514-.352-.717-.14-.16-.3-.326-.485-.376-.224-.057-.46.052-.688.005-.114-.024-.218-.085-.32-.145l-.7-.428c-.088-.052-.18-.108-.23-.2-.016-.03-.028-.064-.05-.1-.085-.102-.235-.022-.358.01-.22.056-.444-.077-.623-.227s-.35-.33-.57-.394c.1-.163.08-.387-.003-.562s-.218-.312-.35-.444c-.027.193-.22.293-.387.36l-.742.3c-.076.03-.174.056-.226-.01-.028-.035-.032-.086-.052-.128-.046-.1-.168-.13-.266-.098s-.175.1-.25.187l.256.024c.02.118-.13.2-.23.15s-.147-.176-.175-.293c-.084.008-.16.07-.193.155-.142.382-.327.72-.564 1.04l-.183.263c-.07.126-.1.267-.15.406a1.84 1.84 0 0 0-.096.426l-.025.243c-.015.1-.043.176-.07.262-.03.097-.06.246-.102.338m15.865 7.266a1.15 1.15 0 0 1-.083.134.41.41 0 0 1-.141.1c-.083.035-.155.04-.204-.044-.03-.054-.04-.126.02-.157.036-.02.134-.017.18-.027a.71.71 0 0 1 .23-.006m-54.448-.14c.08-.04.14-.137.173-.244a1.36 1.36 0 0 0 .045-.34c.001-.026.002-.052-.005-.076-.01-.035-.035-.06-.063-.07-.06-.02-.12.025-.16.085s-.066.136-.1.204c-.062.124-.153.22-.256.273-.084.043-.175.057-.257.105s-.158.147-.158.267c0 .012.001.025.006.036.013.03.047.027.072.018.192-.065.372-.2.568-.226.045-.01.092-.013.135-.034m-6.718-.622l.3.1c.06.02.14.04.193.014.03-.013.036-.036.045-.056.064-.138.315-.232.396-.368-.006-.038-.06-.033-.094-.024a1.81 1.81 0 0 0-.517.228l-.14-.103c-.04-.03-.096-.064-.165-.06-.06.067-.088.143-.08.217.001.01.004.023.016.032s.028.015.045.02m27.076 12.826l.95 2.984c.053.186.105.374.112.568.01.23-.043.463.017.684.097.35.452.573.578.914.083.224.057.472.097.707.064.377.292.704.404 1.07.106.344.108.715.214 1.06.146.475.484.878.6 1.364.082.377.016.768-.005 1.153s.01.802.25 1.103c-.007.178.05.327.16.465.04.05.1.097.116.156.036.078.032.167.054.25.032.122.117.222.18.332.1.195.143.423.15.647l-.003.67a.41.41 0 0 0 .021.13c.027.07.085.12.134.174a1.07 1.07 0 0 1 .242.6c.024.22.003.438-.018.656-.032.332.004.662.003.995 0 .06.005.13.056.16.033.02.075.014.113.014.1 0 .198.068.177.157l-.202-.008c-.01 0-.02 0-.027.005-.015.01-.014.03-.01.048.054.383.06.772.02 1.157l.28-.147c.08.063.064.215-.03.25-.033.012-.07.01-.102.024-.097.04-.114.187-.2.228-.025.01-.056.015-.07.04-.01.017-.005.038-.001.057l.042.187c.082.362.183.747.46 1 .054.16.082.306.16.455.02.038.044.078.083.095.08.036.172-.043.258-.024s.122.125.134.214a1.7 1.7 0 0 1-.01.501c-.01.056-.022.115-.005.17s.076.1.128.08c-.004.076-.006.16.037.222.018.027.043.048.06.075a.31.31 0 0 1 .036.157 3.07 3.07 0 0 1-.038.628c-.01.07-.025.138-.018.207s.038.14.096.176.147.025.182-.035a4.49 4.49 0 0 1 .085.847l.1.001.056.447c.01.118.017.24-.027.35-.022.055-.056.104-.07.16s.001.128.053.153c.028.013.06.012.085.03.04.032.03.097.017.148-.044.187-.022.383.001.573l.1.768c.067.567.294 1.08.506 1.6.018.044.036.1.035.136s-.026.098-.07.113c.03.155.186.248.265.385s.077.3.073.47c-.005.236-.004.48.083.698.065.162.174.3.28.437.027.035.056.07.096.1s.093.017.12-.017l.104.177c.007.013.015.026.016.04.003.05-.063.07-.112.07-.023.083.003.178.064.24.008.212.008.44.12.62.06.097.144.175.2.267.125.176.18.4.334.552.06.06.132.107.17.18s.035.157.07.23c.033.065.093.1.135.17.07.1.086.235.166.33a.56.56 0 0 0 .15.113c.17.098.348.194.464.352.068.094.1.207.188.293.083.092.197.146.296.22a.92.92 0 0 1 .253.287c.15.264.382.484.474.773.054.168.035.35.042.526a1.75 1.75 0 0 0 .092.49.7.7 0 0 0 .093.192c.04.055.094.1.134.156.057.08.084.176.112.27.074.246.17.5.37.662.1.073.198.122.296.185.364.233.604.657 1 .8.042.015.1.03.112.07.03.054-.001.13.033.182-.026.1.057.18.16.174.04-.003.084-.018.112.01.02.02.02.052.027.08s.026.05.044.073a3.19 3.19 0 0 0 1.47 1.035l.18.057.22.067.483.14a7.73 7.73 0 0 0 1.585.248c.2.01.424.014.62.087.172.063.334.147.472.27.02.02.043.04.05.067s-.008.062-.036.066c.052.027.095.07.12.122-.06-.01-.118.037-.155.087s-.065.1-.114.148c-.02.016-.043.028-.056.05s-.013.054-.015.082c-.015.2-.198.334-.218.524-.005.052-.002.114-.043.146-.017.014-.04.02-.06.032-.03.02-.046.053-.06.087-.093.22-.143.46-.146.7-.001.122.01.248-.026.365-.026.085-.075.16-.098.246-.02.076-.02.156-.018.234l.01.66c.002.143.025.285.046.426.028.193.057.4.03.582-.024.166-.1.33-.06.496.03.173.16.317.18.5.01.088-.008.18-.052.255-.028.048-.065.1-.094.137-.1.17-.08.38-.066.578a4.3 4.3 0 0 1-.031.851c-.015.1-.03.234.042.317a2.07 2.07 0 0 1 .402.72c.04.118.064.24.12.352.064.123.163.224.243.336.245.344.306.792.544 1.14.1.13.2.242.293.367.194.26.32.582.575.782.148.116.263.263.4.38l1.152.917c.028.022.058.046.094.052.024.004.05 0 .072.007.044.014.066.062.1.1.095.148.28.2.445.262a1.91 1.91 0 0 1 .698.47c.07.074.135.155.222.2s.182.076.276.106a1.88 1.88 0 0 1 .42.195c.147.092.3.08.474.132l.93.317c.068.027.137.054.208.068a1.1 1.1 0 0 0 .257.008l1.527-.07c.424-.02.84-.155 1.258-.225.04-.007.083-.013.123-.001s.075.05.07.1-.05.075-.087.104c-.193.156-.15.47-.286.68-.068.104-.176.173-.26.265-.168.183-.23.44-.34.662-.06.117-.133.227-.175.352-.038.1-.05.228-.072.342-.085.4-.338.785-.334 1.203.001.117.018.246-.052.338l-.267-.094c-.028.084-.048.194.022.247.048.036.116.026.17.05.103.048.1.2.1.304-.014.178-.13.3-.116.5.004.054.022.107.03.16.03.18-.036.38.06.533.023.037.055.07.078.106.04.065.055.143.068.22l.072.417c.005.03.01.063.027.1s.046.05.075.07c.142.096.306.173.4.317a.81.81 0 0 1 .097.265l.14.654c.063.214.166.424.334.568.04.035.1.073.094.127l-.212-.07c-.05.05-.028.15.037.175.036.085.026.173-.023.25-.02.033-.053.057-.07.1-.038.077.016.164.052.242.08.17.073.368.034.552s-.1.358-.157.54c-.02.072-.035.147-.027.222.013.134.095.248.154.368.196.4.146.878.298 1.297-.155.042-.3-.053-.442-.145.08-.032.098-.138.102-.226.006-.12-.001-.267-.104-.33-.03-.033.003-.056.026-.07.06-.038.065-.14.008-.184s-.154-.01-.173.06c-.005.02-.005.042-.014.06s-.03.038-.043.06c-.036.055-.015.128.004.2.034.112.06.228.05.345-.008.1-.01.18-.058.266-.054.1-.143.188-.142.302 0 .045.015.087.023.13.02.1-.003.222-.026.33s-.047.22-.03.33.1.22.197.246c.045.012.096.01.135.035s.058.086.07.137a4.78 4.78 0 0 1 .09.63c.002.02.003.04-.005.057-.02.05-.1.043-.132.002s-.035-.1-.036-.152c-.047-.01-.097.018-.123.06s-.03.094-.022.142c.016.107.08.2.145.285a2.78 2.78 0 0 0 .695.634c.05.03.043.077.066.13.03.07.043.15.055.226l.1.694c.01.066.02.14-.018.195-.016.023-.038.04-.055.06a.18.18 0 0 0-.013.204c.032.052.1.083.13.13.074.085.082.208.086.32l.013.3c.006.16.013.325.067.476.104.296.365.502.613.7-.004.058.015.082.043.132.084.146.17.293.284.416s.254.216.382.323.248.234.3.393c.03.095.037.197.055.296.038.206.132.4.268.56l-5.014.046-4.54.01-3.25.087c-2.502.192-4.965-.014-7.474.024l-6.992.13-13.153.17c-4.007-.044-8.026-.04-12.024.244-3.26.232-6.554.1-9.82.152-1.865-.06-3.7-.118-5.575-.095-.057-.5-.22-.998-.38-1.484l-.403-1.198c-.114-.333-.233-.67-.44-.953-.233-.32-.562-.55-.885-.776l-2.876-1.983c-.08-.052-.16-.106-.22-.18-.065-.08-.1-.183-.154-.27-.135-.215-.376-.332-.58-.48-.328-.238-.573-.572-.812-.9-.46-.63-.922-1.264-1.247-1.974-.202-.44-.184-.964-.34-1.423-.096-.285-.218-.562-.274-.858-.046-.24-.048-.487-.092-.727-.098-.54-.398-1.018-.657-1.5-.36-.673-.654-1.382-.946-2.1a3.22 3.22 0 0 1-.19-1.755c.042-.242.105-.48.134-.725.034-.3.022-.582.01-.873-.04-.92-.01-1.853-.03-2.773-.015-.755.054-1.54-.23-2.237-.077-.2-.18-.368-.28-.546l-.17-.3c-.496-.872-.85-1.8-1.22-2.725-.206-.522-.304-1.08-.4-1.632-.143-.815-.7-1.512-.92-2.3-.073-.266-.13-.537-.224-.796-.168-.47-.444-.9-.718-1.308-.427-.65-.797-1.36-1.23-2.006-.106-.16-.205-.325-.27-.505-.07-.196-.1-.404-.127-.6l-.1-.86c-.057-.57-.1-1.15-.298-1.686-.208-.567-.66-1.03-1.054-1.483a41.31 41.31 0 0 1-2.066-2.575c-.173-.234-.344-.472-.468-.736-.1-.237-.182-.5-.252-.744l-.275-.988c-.15-.543-.442-1.046-.55-1.6-.015-.078-.03-.16-.08-.222-.065-.082-.174-.1-.275-.133-1.518-.337-3.082-.393-4.624-.588-.208-.026-.42-.056-.612-.14l-13.36-1.657-12.848-1.862-9.393-1.326-7.24-.964-7.865-.976-3.725-.6-.785-.288-9.72-1.282-9.153-1.012-1.57-.37L0 105.8l.5-1.653.835-1.046 1.002-1.046 1.1-1.272 1.23-1.1 1.1-.62 1.403-.978.85-1.012 1.42-1.384 1.403-1.788 1.403-1.822c.472-.995 1.048-1.95 1.722-2.818.37-.48.77-.935 1.134-1.42.383-.5.725-1.053 1.122-1.552.482-.605 1.04-1.142 1.556-1.718a15.7 15.7 0 0 0 1.892-2.606l.3-.55c.365-.66.5-1.46.862-2.12s.83-1.273 1.425-1.728c.486-.37 1.055-.636 1.476-1.08.186-.196.318-.465.454-.7.118-.203.273-.38.4-.57.332-.456.565-.984.926-1.417.347-.416.8-.73 1.146-1.15.228-.275.405-.6.633-.863.47-.563 1.146-.946 1.514-1.58.275-.474.353-1.048.65-1.507.62-.956.926-2.128 1.317-3.2.265-.727.512-1.477.977-2.094a1.29 1.29 0 0 0 .222-.345c.037-.098.05-.205.055-.3.028-.436-.015-.885.12-1.3.287-.88 1.292-1.38 1.544-2.27.086-.306.12-.7.416-.812.23-1.016 1.067-1.873 1.583-2.776.325-.568.544-1.2.747-1.812.095-.293.2-.6.35-.853.175-.285.423-.516.668-.742l.622-.576c.155-.627.33-1.322.6-1.903.353-.73.887-1.353 1.367-2.006s.92-1.37 1.036-2.175c.063-.435.145-.85.2-1.3a23.49 23.49 0 0 0 .084-1.062c.026-.5.03-1 .082-1.496.033-.318.084-.633.135-.948.04-.244.08-.5.186-.714.125-.263.332-.475.5-.72a4.32 4.32 0 0 0 .285-.544l.134-.287c.233-.117.412-.35.6-.532a5.16 5.16 0 0 0 .456-.523c.13-.166.264-.335.342-.53.082-.206.1-.432.142-.65.205-1.056.978-1.902 1.382-2.9.112-.277.195-.564.287-.848a14.55 14.55 0 0 1 .871-2.107c.702-1.38 1.42-2.715 2.05-4.13.654-1.47 1.02-3.05 1.53-4.575.145-.433.088-.926.1-1.383.023-.896.434-1.733.9-2.496s.996-1.497 1.304-2.337c.12-.33.206-.675.32-1.007.172-.497.412-.967.65-1.435s.5-.957.95-1.212c.674-.38 1.025-1.185 1.54-1.765.496-.56.998-1.123 1.606-1.556.395-.282.83-.504 1.26-.724 1.233-.63 2.473-1.263 3.8-1.684.946-.302 1.927-.492 2.916-.565.636-.047 1.163-.528 1.726-.83 1.2-.642 2.438-1.402 3.472-2.292.37-.32.728-.675 1.173-.877.316-.144.66-.204.994-.3.595-.173 1.15-.466 1.67-.8.202-.134.403-.278.637-.338.162-.042.33-.04.497-.04L78.7.056l16.446.07 10.77-.055 12.48 5.6 9.954 4.476c.358.72 1.177 1.092 1.953 1.28s1.6.228 2.343.496c.25.1.6.072.852.157.06.02.126.046.163.1s.04.123.04.2c-.012.667-.344 1.278-.576 1.902s-.352 1.373.023 1.923c.186.273.5.495.52.825.023.25-.122.48-.206.715a1.51 1.51 0 0 0 .174 1.329c.12.174.275.322.378.506.274.485.13 1.1-.02 1.628l-.327 1.164c-.32 1.138-.177 2.327.07 3.484s.668 2.267 1.113 3.362c.317.78.648 1.56 1.078 2.284.75 1.26 1.044 2.674 1.62 4.025.085.2.172.402.316.564.24.272.602.4.937.528s.684.33.822.666c.122.297.07.684.312.893.2.182.522.127.8.132a1.7 1.7 0 0 1 1.582 1.338c.125.648-.138 1.33.008 1.974.164.722.215 1.458.635 2.065.07.103.148.202.203.314.113.23.124.498.195.745.15.523.568.96.6 1.503.01.128.001.266.07.374s.2.158.3.238c.242.2.296.53.37.83a3.82 3.82 0 0 0 .502 1.164c.102.158.218.312.273.493.04.13.046.27.065.404.07.5.34.988.735 1.3.08.065.168.13.2.223a.58.58 0 0 1 .037.151l.106.678c.13.833.432 1.588.728 2.376.024.064.05.128.088.183.047.066.114.115.173.17.26.24.388.586.572.888.2.347.497.64.737.967.298.406.523.86.746 1.313.126.256.256.54.2.817-.032.135-.108.254-.182.37l-.336.524c-.136.213-.28.433-.5.557-.458.26-.5.896-.767 1.36-.092.167-.185.34-.194.532a.64.64 0 0 0 .177.47c-.07.17-.348.102-.433-.06s-.06-.36-.096-.54c-.04-.203-.16-.38-.282-.547a6.64 6.64 0 0 0-.76-.858c-.3-.284-.623-.54-.947-.795l-1.9-1.488c-.208-.164-.418-.33-.658-.44-.182-.084-.377-.135-.57-.195-1.086-.34-2.115-1-3.252-.965-2.707-1.12-5.8-1.388-8.65-.673-.638.16-1.268.373-1.833.713-.5.3-.942.697-1.44 1.005-.705.437-1.52.694-2.162 1.223-.154.127-.297.27-.463.38-.14.095-.296.165-.448.24a10.13 10.13 0 0 0-2.42 1.645c-.4.367-.945.507-1.397.808a15.07 15.07 0 0 0-3.909 3.791 1.84 1.84 0 0 0-.22.372c-.043.104-.07.22-.144.304-.12.137-.32.152-.5.216-.28.106-.482.353-.67.6l-.842 1.066c-.727.92-1.133 2.063-1.92 2.932-.316.348-.665.67-.94 1.05-.143.2-.265.415-.426.6s-.363.34-.52.53c-.267.322-.4.735-.496 1.143-.022.092-.05.197-.133.242-.04.022-.088.025-.13.04-.154.053-.284.246-.43.18-.186-.085-.034-.398-.15-.567-.036-.053-.095-.085-.152-.114-.187-.096-.4-.193-.598-.16-.1.017-.2.07-.308.12l-.97.502c-.13.068-.265.138-.358.253s-.132.287-.054.413c.153.246-.002.546-.1.823s-.315.53-.6.558c-.167.017-.363-.033-.484.085s-.074.323-.014.483a8.04 8.04 0 0 0 .377.847c.124.24.286.493.545.557.214.052.434-.04.635-.132.6-.274 1.206-.55 1.74-.94.3-.212.595-.47.952-.446.07.004.138.02.207.007.155-.028.268-.2.426-.194.132-.003.236.106.332.197.344.326.812.516 1.283.522.425.005.854-.13 1.27-.04.083-.053.03-.178.015-.276-.018-.132.072-.27.2-.303a.27.27 0 0 1 .313.176c.033.1.023.27.134.3.067.01.123-.047.176-.1.173-.138.414-.13.634-.146.74-.055 1.4-.45 2.046-.836.212-.128.52-.114.748-.2.25-.105.474-.273.735-.35s.6-.028.725.2c.082.145.074.326.145.477-.07.094-.213.076-.325.04s-.243-.076-.335-.003c-.054.042-.077.112-.113.17-.1.174-.333.23-.536.25s-.418.015-.594.12a.95.95 0 0 0-.166.131 4.24 4.24 0 0 0-.724.887c-.07.114-.136.245-.106.375.042.18.242.265.4.377a.86.86 0 0 1 .33.73c-.015.23-.12.44-.208.65-.1.24-.117.508-.166.765-.054.282-.102.593.044.84.156.262.477.358.754.482.186.084.363.2.55.27.492.216 1.038.267 1.573.315.233.02.468.042.698-.002.194-.038.377-.12.564-.185.648-.222 1.385-.236 1.938-.642.13-.096.246-.2.377-.306.196-.142.422-.237.62-.377.258-.182.458-.434.655-.68l.462-.582c.018-.023.038-.05.035-.08s-.034-.057-.063-.076l-.968-.64c-.03-.02-.014-.098.008-.128s.054-.052.078-.08c.073-.1.046-.223.064-.338a.54.54 0 0 1 .197-.32c.097-.08.215-.138.332-.2.22-.098.458-.184.698-.16.04.004.082.012.118.032.096.052.135.172.145.282-.076.058-.178.064-.266.1-.12.05-.208.155-.3.257-.04.05-.084.1-.07.174.17-.026.345-.055.483-.157.05-.037.093-.082.14-.124.113-.102.272-.184.413-.13.04.015.073.04.1.06.107.057.23.073.347.1a2.1 2.1 0 0 1 .517.185c.02.01.042.026.04.048s-.023.03-.042.033c-.092.017-.17-.063-.26-.088-.156-.042-.3.085-.428.184-.106.082-.222.15-.338.217-.038.022-.082.045-.124.033-.058-.017-.1-.097-.16-.06-.014.01-.02.027-.026.043-.05.137-.055.3-.018.43.005.02.014.043.032.054s.047.003.07.004c.055.002.096.05.12.1s.033.107.065.15c.01.013.02.026.036.03.025.008.05-.007.074-.02.083 0 .263-.163.336-.208l.37-.23c.108-.067.218-.158.335-.204s.245-.037.358-.1a.8.8 0 0 0 .125-.08l.94-.685c.1-.08.22-.16.312-.258.073-.078.135-.166.197-.253l.195-.277c.083-.118.106-.26.187-.378.406-.6.954-1.083 1.495-1.56.138-.122.277-.244.433-.34.528-.328 1.186-.332 1.806-.326.076.001.158.003.218.05.067.052.087.143.098.227.048.4-.063.845.093 1.227.078.2.216.35.352.503.125.143.257.3.433.36.138.055.3.057.435.094a.93.93 0 0 1 .454.275c.02.022.04.047.07.056.063.018.115-.045.16-.093s.128-.086.165-.032c.015.023.015.053.014.077a.44.44 0 0 0 .1.284c-.145.022-.217.016-.256.005-.01-.002-.036-.01-.052.003s-.014.045-.007.068c.03.1.108.237.143.293.247.4.457.77.852 1.005.46.274 1.05.376 1.37.8.044.06.082.125.143.165s.152.047.2-.01c.02-.023.03-.054.052-.072.047-.037.114-.002.167.026.364.198.8.08 1.202-.056.9-.314 1.8-.693 2.66-1.134.088.193.075.418.025.624s-.134.403-.185.6c-.064.253-.077.516-.152.766-.146.487-.522.914-.513 1.423.003.176.054.348.07.523-.08.146-.08.288-.115.45l-.114.504c-.034.15-.068.3-.087.45a2.44 2.44 0 0 0 .002.633c.025.2.073.375.07.565-.004.25-.095.498-.047.74.033.17.13.32.157.5.026.162-.015.333.032.5.068.225-.022.44.04.667.03.1.066.262.104.37m-6.104-73.173c.02.1.097.152.177.185a.51.51 0 0 0 .626-.245c.1-.172.097-.4.24-.52s.36-.065.544-.032c.87.16 1.713-.34 2.473-.823.237-.15.476-.303.675-.507.173-.178.3-.392.485-.57.235-.24.526-.4.813-.56l1.334-.68c.364-.155.743-.28 1.08-.495.166-.106.323-.235.507-.3.173-.06.36-.06.54-.064.768-.02 1.533-.157 2.266-.405.085-.03.18-.07.2-.16.06-.172-.152-.3-.318-.342L145.2 9.9c-.5-.13-1.032-.26-1.552-.194-.385.05-.836.185-1.116-.105-.085-.088-.14-.205-.216-.3-.088-.1-.205-.193-.334-.234-.122-.04-.252-.042-.38-.044L140.834 9c-.367-.007-.736-.014-1.1.04-.63.094-1.223.367-1.795.666-.3.162-.663.422-.624.8.005.053.023.1.067.134.05.028.1 0 .16-.027l1-.537c.04.14-.055.278-.147.385a5.93 5.93 0 0 1-1.399 1.188c-.118.072-.24.142-.328.255s-.123.245-.187.366c-.108.203-.28.356-.442.5-.506.472-1 1.06-1.042 1.78-.016.345.08.693.025 1.034-.01.064-.026.13-.01.193m12.968-6.22a.3.3 0 0 1-.085.335c-.095.084-.238.116-.368.1-.238-.046-.395-.257-.476-.47-.036-.094-.062-.196-.043-.295a.28.28 0 0 1 .195-.221c.13-.033.264.045.362.13s.192.188.322.22c.043.05.068.146.093.206m-6.564 12c-.065.007-.135.013-.195-.01-.073-.03-.114-.098-.154-.16-.164-.254-1.512-1.472-2.698-1.3-.187.03-.28.078-.418.03-.314-.1-.2-.48-.55-1.134-.202-.366-.412-.56-.4-.93a.99.99 0 0 1 .044-.259c.333-.098.693-.196 1.027-.102.078.022.157.055.238.04.037-.006.072-.022.106-.036.2-.073.403-.072.605-.112.7-.136 1.143-.716 1.506-1.26s.764-1.14 1.432-1.348l.25.533c.053.112.108.228.203.315.3.266.786.16 1.183.268-.042.24-.284.432-.28.675.003.218.205.4.413.503s.443.2.597.367c.128.14.2.33.35.44.2.133.458.115.7.12s.526.076.605.28c.057.15-.02.312-.097.455l-.98 1.837c-.046.086-.093.174-.173.237-.134.105-.33.117-.482.202-.336.2-.395.706-.787.76-.303.043-.527-.234-.793-.37-.37-.2-.83-.102-1.252-.054"/><path d="M145.2 13.287a3.54 3.54 0 0 0-.586.268c-.172.1-.345.22-.428.402a1.16 1.16 0 0 0-.074.285l-.07.42c-.02.118-.038.246.014.354s.166.174.282.2.237.02.356.024c.195.004.396.034.562.137s.3.293.27.488c-.024.224-.22.393-.278.6-.005.02-.01.042-.004.062.007.028.03.048.05.066.274.225.678.297.864.6.1.18.145.438.34.516a.53.53 0 0 0 .228.02c.284-.017.6-.03.826.13.184.126.293.345.316.567s-.03.448-.122.653c-.135.304-.334.586-.422.908s-.092.675.04.98c.04.1.094.177.18.22.146.075.33-.01.43-.14.064-.083.106-.186.2-.246.096-.07.23-.068.34-.026s.206.117.297.192c.02.016.04.04.032.062-.006.014-.02.02-.034.027a3.53 3.53 0 0 1-.7.226c-.052.01-.112.026-.137.073-.014.027-.014.06-.013.1.008.22.052.438.128.645.056.154.17.324.332.3s.24-.192.36-.298c.182-.163.454-.155.688-.223s.433-.214.637-.346c.063-.04.137-.08.208-.057.1.03.126.154.218.18s.184-.072.202-.17-.008-.2-.001-.298.07-.2.168-.214a.69.69 0 0 1 .11.452c-.008.072.016.184.083.157.176-.292.025-.678-.198-.936s-.515-.457-.687-.752c-.04-.066-.07-.153-.028-.217s.145-.068.215-.03.12.104.178.158c.02.018.043.035.07.034.054-.002.072-.08.046-.13s-.077-.077-.112-.12c-.12-.145-.016-.36.05-.535.088-.23.106-.488.05-.728.103-.018.17.104.203.205l.288.883c.137-.05.147-.24.133-.385l-.1-.997c-.005-.048-.007-.102.026-.136.023-.024.06-.03.092-.032.215-.007.384.198.443.407s.044.432.1.644c.102.027.204-.047.267-.132s.108-.185.2-.253c.012-.01.025-.02.04-.02s.038.01.052.025c.1.097.012.255-.075.356s-.187.233-.13.353c.04.08.145.114.233.095a.47.47 0 0 0 .226-.143c.054-.054.12-.12.194-.098.084.024.098.146.053.22s-.126.12-.2.18-.113.157-.07.234c.35-.058.68-.22.944-.457.055.053.046.148.001.2s-.117.097-.185.13c.05.086.157.12.24.174s.146.18.076.25c-.05.05-.134.038-.203.02l-.28-.07c-.12-.03-.3-.028-.314.094-.012.064.03.136-.005.2-.018.03-.052.043-.084.052-.127.037-.266.035-.383.095s-.202.224-.117.326c.047.057.14.1.134.165a1.47 1.47 0 0 0-.654.825 1.2 1.2 0 0 1 .419.18 8.85 8.85 0 0 1-1.94.636c.116.214.514.038.652.237.082.12.018.314.13.406.037.03.085.04.132.05.24.044.533.093.615.324-.07.05-.158-.012-.235-.045-.276-.12-.604.133-.885.026-.154-.06-.276-.22-.44-.2-.01.082.078.134.138.2a.37.37 0 0 1-.046.553c-.112.073-.035.26.08.327.062.036.135.045.206.052l.343.035c.126.013.284.054.304.18.01.057-.015.116.003.17s.07.086.1.124c.108.102.144.274.084.4l-.396-.352c-.052-.046-.143-.1-.18-.03-.03.05.014.13-.03.168-.035.03-.1-.002-.115-.04s-.04-.088-.08-.112-.097-.01-.146-.005c-.1.01-.22-.038-.3-.102-.23-.16-.377-.42-.456-.7s-.095-.555-.1-.836c-.013-.215-.025-.432-.004-.646-.18-.04-.37.003-.536.085a2.42 2.42 0 0 0-.451.32c-.037.03-.077.064-.093.1-.03.083.027.17.067.247.115.224.116.488.114.74-.001.07-.006.152-.064.193s-.158.01-.2-.056-.044-.15-.037-.226.022-.157.008-.233c-.006-.033-.02-.066-.046-.086-.033-.024-.077-.02-.116-.028-.096-.022-.157-.12-.248-.158a.44.44 0 0 0-.16-.025l-1.25-.04c-.085-.003-.2.006-.224.084-.028.062.008.135.053.186.123.138.316.202.425.352.087.12.108.284.2.392.13.138.346.14.53.105s.37-.104.557-.074c.223.036.406.206.628.248.158.03.323-.007.48.03.194.047.344.2.526.28.104.046.217.067.322.1.307.124.52.417.635.728-.18-.073-.35-.166-.5-.278-.08-.057-.16-.12-.258-.136s-.213.04-.226.137.075.185.057.28c-.01.05-.047.1-.08.127a1.04 1.04 0 0 0-.227.44c-.03.12.065.16.17.224s.2.237.08.286c-.093.04-.22-.08-.3-.007-.062.065.026.163.104.208l.435.245c.044.024.1.05.14.05.062 0 .117-.04.167-.076l.485-.36-.35.983a.35.35 0 0 0-.032.168c.024.195.33.264.337.46l-.432.018c-.08.097.142.206.124.332-.01.07-.096.106-.168.1-.248-.015-.388-.296-.432-.542s-.055-.524-.233-.7c-.102-.1-.242-.148-.365-.22a1.07 1.07 0 0 1-.521-.83c-.01-.12.002-.243-.01-.363-.024-.247-.144-.473-.26-.692-.1-.204-.235-.423-.447-.513-.312-.132-.708.062-.994-.12-.162-.103-.237-.296-.35-.45s-.33-.28-.5-.173c-.053.035-.1.1-.128.14-.26.34-.683.5-1.07.68s-.8.43-.92.84l1.105-.017c.036-.001.076 0 .102.025.05.047.01.13.012.198.001.094.086.17.176.2s.185.002.275-.017l.76-.164c.1-.022.2-.042.3.004s.144.153.232.2c.095.06.214.054.325.07s.235.077.25.2c-.095.04-.204.02-.307.037s-.2.114-.17.2c.03.075.122.095.194.133a.34.34 0 0 1 .153.407c-.127.098-.284-.152-.44-.112-.098.025-.128.164-.078.253s.15.135.246.17c.26.092.536.13.8.112.077-.005.158-.014.23.012s.136.1.12.177a12.17 12.17 0 0 1-1.516-.052c-.33-.032-.697-.1-.882-.377-.133-.2-.188-.513-.425-.545-.027-.003-.057-.002-.077.017s-.023.06-.02.094l.036.3-.907-.305c-.074-.03-.15-.06-.2-.124-.04-.052-.056-.12-.084-.178-.1-.237-.438-.34-.664-.2-.118.068-.2.183-.305.27-.214.18-.503.236-.78.27s-.563.052-.812.176-.455.4-.412.668c.013.086.05.175.016.255-.048.115-.224.164-.22.3.002.074.07.128.132.168.285.187.608.356.947.33.317-.023.6-.214.828-.438l.653-.702c.062-.057.16-.1.22-.055.053.048.03.136-.007.197-.147.238-.474.42-.414.692a8.38 8.38 0 0 0 1.78.28l1.458-.001c.1 0 .243.016.283.12.022.056.005.12-.02.175-.163.36-.632.474-1.02.405s-.74-.27-1.123-.362c-.394-.095-.816-.072-1.2-.226-.214-.087-.457-.23-.655-.1-.062.038-.1.097-.168.138a.7.7 0 0 1-.26.09l-1.033.204a.86.86 0 0 0-.1.328c-.003.057 0 .118.032.165.052.075.158.085.25.083.16-.003.32-.017.48-.044.207-.034.4-.1.62-.095.32-.01.63.093.933.194.1.03.185.063.256.128s.112.173.072.26c-.186.043-.378-.024-.562-.073-.5-.132-1.004-.15-1.513-.168-.178-.006-.373-.007-.513.104-.093.073-.14.237-.04.303.06.04.14.02.213.03s.152.083.1.143c-.013.02-.036.03-.06.04-.135.057-.283.086-.4.16-.098.058-.18.14-.265.212-.234.198-.5.337-.776.5a.68.68 0 0 0-.202.157c-.053.067-.08.163-.045.242.22.01.418-.113.615-.2a2.9 2.9 0 0 1 1.083-.29c.03.058-.004.133-.058.17s-.12.047-.185.058a2.97 2.97 0 0 0-.807.258c-.076.037-.152.078-.2.14a.75.75 0 0 0-.123.22c-.1.266-.225.56-.135.835.024.074.063.143.1.216.07.188.07.394.1.595s.07.412.213.55c.182.174.46.186.7.206.355.03.707.096 1.05.2l.792.227c.273.1.544.207.756.402s.358.48.33.768c-.014.14-.067.274-.1.4s-.045.3.02.414c.092.174.3.244.493.283s.4.072.54.2c.132.134.166.335.2.522.052.398.087.816-.058 1.2-.06.154-.15.298-.173.462-.03.206.053.4.158.6a1.37 1.37 0 0 1 .408.328.71.71 0 0 1 .162.47.97.97 0 0 1-.092.33c-.032.073-.053.183.02.212.02.007.04.007.06.01.087.01.158.08.2.158s.065.165.103.245c.012.025.027.05.05.063s.043.01.066.01h.3c.05.06.053.145.064.223s.043.166.117.2c.033.01.07.007.103.016.066.017.1.08.145.14.136.222.25.458.343.702.03.078.064.165.138.2.13.062.302-.07.423.01.1.06.085.193.07.3-.07.47.293.906.45 1.354a2.53 2.53 0 0 1 .139.917c-.004.118-.017.24-.076.342-.066.115-.2.236-.132.355.02.038.054.065.085.094.2.174.264.44.294.697.006.05.012.105.04.15.02.03.05.053.078.074l.453.306c.142.114.265.267.292.448.02.138-.015.28.012.418.046.227.06.438.083.67a1.8 1.8 0 0 0 .066.396c.035.1.092.2.146.312a16.41 16.41 0 0 1 .739 1.563c.25.6.496 1.28 1.045 1.64.66.435 1.528.285 2.294.47a2.96 2.96 0 0 0-.555.246 5.39 5.39 0 0 0 3.255-.756c.4-.237.746-.574 1.093-.872l.5-.46.575-.632c.27-.275.575-.513.862-.77.956-.857 1.707-1.927 2.673-2.772l.584-.513c.466-.4.867-.873 1.266-1.342l1.295-1.642c.347-.512.645-1.057.942-1.6.97-1.777 1.956-3.592 2.332-5.584.135-.716.288-1.463.166-2.18l-.328-1.74c-.05-.474.007-.956-.056-1.428-.037-.276-.123-.562-.327-.752-.144-.134-.333-.208-.488-.328-.135-.105-.242-.242-.37-.354s-.295-.2-.464-.176c-.1.074-.05.228.037.303s.205.104.307.158c.147.078.268.227.266.394s-.16.328-.323.293c-.058-.013-.1-.048-.164-.07-.1-.035-.2-.035-.3-.043a1.54 1.54 0 0 1-1.231-.861c-.256-.544-.726-1.03-.993-1.568l-.486-1.05c-.478-1.026-1.054-2-1.63-2.975l-1.217-2.12-1.205-1.787-.74-.98a14.28 14.28 0 0 0-.87-.87l-2.974-2.78c-.02-.193-.234-.34-.384-.463l-1.234-1-1.586-1.2a9.79 9.79 0 0 0-.952-.55l-1.05-.48c-.258-.112-.518-.225-.792-.287-.25-.058-.5-.072-.767-.087-1.145-.064-2.355-.148-3.437.23m-10.113 2.754c.032.02.065.052.07.096a.21.21 0 0 1-.01.082l-.183.695c-.007.027-.016.057-.037.07-.028.015-.06-.012-.078-.043-.024-.045-.03-.098-.038-.15l-.068-.53c-.004-.033-.01-.067-.004-.1.012-.1.1-.168.183-.17.058-.002.115.02.165.055m.88 5.183c.025.04.078.07.1.115.02.07-.067.14-.047.2.018.063.113.094.198.102s.176.002.25.033a.43.43 0 0 1 .095.058 2.07 2.07 0 0 1 .208.184c.028.03.065.06.112.056.056-.006.075-.06.07-.102-.01-.14-.114-.267-.224-.38s-.232-.226-.288-.36c-.016-.037-.027-.077-.06-.107-.04-.035-.102-.05-.162-.05s-.12.013-.177.026c-.022.005-.045.01-.06.024s-.015.026-.018.04c-.01.05-.02.105.008.152m5.035 1.754c.046.016.093-.048.112-.133a.79.79 0 0 0 .003-.27l-.046-.26-.02-.152c-.007-.047-.014-.096-.032-.13-.02-.04-.053-.055-.083-.05-.1.018-.165.233-.156.426a1.07 1.07 0 0 0 .15.487c.022.037.045.073.073.083m1.95.69c.004.06-.013.12-.033.148s-.045.033-.068.037l-.702.122c-.044.007-.1.014-.13-.03s-.074-.156-.065-.27c.016-.193.122-.202.174-.344.03-.085.04-.216.076-.292.042-.092.106-.068.155-.002s.1.166.14.222c.092.103.2.045.297.114.048.034.092.1.128.188a.33.33 0 0 1 .026.106m-1.025.387c-.006-.015-.013-.03-.023-.038s-.034-.018-.052-.02c-.22-.033-.44-.004-.66.025-.04.005-.084.012-.118.04-.072.06-.076.2-.06.3s.045.22.01.32c-.016.045-.044.083-.06.128s-.017.106.014.137c.012.012.028.018.044.022.23.063.46-.1.652-.262a.91.91 0 0 0 .225-.274c.055-.113.075-.26.027-.377m-6.8-.988c-.1.15-.123.335-.142.512-.024.22-.048.445-.015.665s.13.44.3.583c.076.06.175.12.18.215.004.064-.038.12-.07.177-.05.094-.075.2-.08.307-.005.1.003.183.05.262.095.158.3.206.503.214s.397-.002.56.094c.013.008.026.017.03.03.007.026-.022.047-.047.057-.108.047-.23.056-.344.1s-.23.1-.263.208c-.003.01-.005.02-.001.03.007.018.03.024.052.028a4.12 4.12 0 0 1 1.413.503c.02.1-.13.167-.236.17a.85.85 0 0 1-.423-.105c-.074-.04-.144-.095-.23-.108-.1-.017-.216.038-.307.098-.14.093-.268.2-.336.358s-.064.334.04.46c.072.086.18.137.283.188a4.14 4.14 0 0 1 .943.653c.084.078.17.162.28.198a.76.76 0 0 0 .248.023l2.118-.092c.032-.002.066-.005.093-.022.038-.024.053-.07.06-.113.016-.103.005-.2-.034-.307-.018-.045-.042-.093-.028-.14.012-.04.05-.07.085-.094l.452-.325c.063-.046.127-.092.2-.122.094-.04.198-.05.3-.063a5.72 5.72 0 0 0 .676-.13c.13-.033.266-.076.355-.172.072-.078.105-.18.125-.283a1.43 1.43 0 0 0-.08-.812c-.006-.015-.012-.03-.025-.04-.03-.023-.076-.005-.098.025s-.026.067-.037.102c-.03.093-.117.17-.217.2-.02.005-.045.007-.064-.004-.034-.02-.034-.066-.03-.104l.045-.35c.004-.032.007-.068-.013-.094s-.053-.033-.085-.04l-.507-.106a4.15 4.15 0 0 0-.633-.54c-.226-.16-.494-.277-.776-.285-.232-.006-.46.06-.688.094-.382.054-.77.01-1.152-.042-.02.076-.13.144-.08.207.02.024.055.03.087.033.26.022.54-.01.764.114.058.032.115.1.093.15s-.1.072-.165.072c-.3-.002-.57-.102-.815-.247a3.45 3.45 0 0 1-.657-.534c-.12-.12-.237-.242-.32-.386s-.135-.312-.224-.46c-.106-.176-.265-.322-.356-.506-.05-.104-.078-.216-.128-.32s-.13-.203-.244-.24-.227-.006-.337.022c-.014.003-.05.038-.057.05m.882 5.917c.23.02.373.227.544.37.325.27.806.32 1.25.303s.892-.084 1.324.004a3.48 3.48 0 0 1 .59.193c.07.027.14.056.185.1.06.073.054.172.044.263-.04.37-.102.74-.186 1.105a.82.82 0 0 1-.095.264c-.05.08-.12.14-.193.2l-.78.678-.705.512c-.168-.118-.282-.296-.3-.486-.02-.133 0-.268-.022-.4s-.08-.245-.14-.362l-.45-.887c-.085-.167-.17-.336-.3-.485-.2-.26-.52-.452-.673-.74-.096-.18-.122-.383-.147-.58m6.094 7.088a.63.63 0 0 0-.096.295c-.004.07.006.142.06.202s.13.098.2.137l.294.148c.084.042.2.086.288.062.072-.017.115-.066.134-.115.015-.037.02-.076.01-.114s-.038-.082-.065-.122l-.334-.482c-.05-.072-.123-.156-.245-.16s-.2.076-.255.15m14.228 29.313c.018.055.014.118.04.168.043.08.148.1.192.18.03.05.03.122.076.157.02.015.047.02.072.024.077.012.165.02.226-.032.047-.04.064-.1.072-.172a.96.96 0 0 0-.06-.469.34.34 0 0 0-.05-.092.35.35 0 0 0-.095-.076c-.17-.102-.367-.154-.562-.148-.038.001-.08.005-.112.026-.04.025-.064.072-.085.117-.026.054-.048.132 0 .168.03.022.07.013.105.014.08.002.156.06.182.14"/></g><g fill="#fff"><circle cx="135" cy="118" r="7.846"/><circle opacity=".2" cx="135" cy="118" r="8.7724%"><animate attributeType="SVG" attributeName="r" begin="0s" dur="1.5s" repeatCount="indefinite" from="5%" to="10%"/><animate attributeType="CSS" attributeName="stroke-width" begin="0s" dur="1.5s" repeatCount="indefinite" from="3%" to="0%"/><animate attributeType="CSS" attributeName="opacity" begin="0s" dur="1.5s" repeatCount="indefinite" from="1" to="0"/></circle></g></svg>