<svg xmlns="http://www.w3.org/2000/svg" width="150px" height="150px" viewBox="0 0 136 181" fill-rule="evenodd"><g fill="#b12a2e"><path d="M136 74.86l-.318 2.62-.83 2.192-1.7 2.386-.4 1.8-.54.7-.53.468-1.64 2.464-.694 2.04-1.902 3.52-.144.305-2.698 1.232-2.3 1.866-2.165 2.348-.802 1.16-.44.348-.827 1.386-.075.8-.318.56-.788.65-.023.406-1.063.926-.255.356.376.565.78-.392-.3.658-.692.07-.236.524-1.14 1.402-1.22 4.047-.634.325-.366.647-.88.103-.87-.412-.62-.01-.716.26-.054-.01-.045-.03v-.215l-1.246-.337.07-.88.366.394.534-2.777-.652-.643-1.883.678-.6.54-.1.268-.026.933-1.744 1.105-.207.266.035.72.155.22-.538.792-.52.217-1.064 1.098-.26.432-.104 1.012.114.258.03 1.184-.335 1.036-.077.935-.9 2.46-.977 1.5-.22 1.012.436.823.035.777-.3 1.307.54.992.643 1.367-.117 1.342-.325 1.08.33 1.077.757 1.14-.122 1.26.595 1.133-.084.52-.996.57-.44.066-.145.2-.873.3-3.2-.234-5.175.84-2.226.632-2.756 1.188-2.035 1.308-2.402 2.585-.338.65.048 1.675-.35.578-.25.882-.035.896-.966 2.63.207.417-.357.823-.982.537-.598.566-.187.348-1.408 1.412-.1.522-2.46-.256-1.967.296-.392-.046-.958-.083-1.788.632-4.476.235-3.284.875-.673.613-1.395 2.537-1.53 1.206-.526 1.018.037 1.14.5.417.62.626-.157 1.616-.37.5-.025 1.158-1.017 1.298-.106.26-1.156 1.08-.1.14-1.533 1.4-.215.124-.34-.216-3.204 1.223-1.027-.053-1.145-.318-.173-.488-.414-.337-.872-.216-2.97.057-.27-.076-5.32.432-1.54.447-.273.503.016.25-.055.133-1.35.635-1.17.122-2.166.7-1.295 1.382-1.633.553-2.465.007-2.322.525-1.96.55-1.476.838-5.07-11.405-.3-.245-.855-.046L0 138.336l51.835-18.26L63.255 83.4l.02-.5-7.815-13.03.198-2.836-.1-2.717.548-2.125 1.703-3.048.385-1.197.54-2.444.527-.705.307-.332.465-.887.514-2.045.982-1.6-.023-1.2-.056-.505-.594-.9-.288-.176-.333-.302.276-.698 2.918-1.115 1.256.116.627-.165.187.078 1.13.15 2.433-.87.27-.616-.788-1.922-.7-.632-.567.222-.878.1-.822-.194-.244-.512.582-1.095.344-1.292-.667-1.438-.162-1.505.2-.83.725-1.254-.437-3.842.25-.907 1.374-1.318 1.514-.208.732.695.225 1.318-1.105-.24.046.46.114.124 1.278 2.004.725.242.73-.48.715-1.32.63-.146.787-.4.762-.667.28-.525.074-.674.42-.43.7-.054.413 1.5 1.324 2.7.197 1.063 2.038 3.893 1.384 1.316 2.17 2.792.456 1.077 1.57 1.942 3.55 2.968 1.264.725L98.4 49.56l1.85.02.476.254.477.55 1.83.46 2.08-.087 2.92.805 1.02.893 1.1.305 1.73-.137.692-.6 1.408.112.776.574.24.5 1.353 1.035.207-.114.16.2.285-.098.284-.03.5 1.086.292 1.14.134.247 2.062 2 1.197 2.1.06.4.27.537.63.646.752 1.33 1.135.733.805.64.626 1.05.646 1.747 3.008 3.44 1.158.793.117.2-.354.144.134.196.5-.006.907-.303.802.07.276.195.93.337.104.46.5.366-.25-.63.183-.137 1.157.446.425 1.2v.226M75.417 0l.25.514.43-.162.06.35 1.3.375.057-.366.24-.102.236.584-.8.1-.643.418-.52.656.77.6.776.016-.384.583-.526-.2-.03.444.737.705.013.16-.916-.124-.344-.174-.147-.336-.433.093.04-.452-.3-.005-.553.827.02.695.567-.418.103.214-.046.52 1.9.148-.177.315-1.308.7-.074.372.422-.118-.08.85.808.827-.17.323-.988.074-.082 1.18-.338 1.054-.826 1.132-.442.032-.47 1.16.14 1.178-.76.256-.82-.366-.5-.35-.408-.43-.063-.684.296-.706.064-.734-.18-.23-.023-.898.415-1.28.183-1.705-.392-1.467-1.49.196.384-1.14 1.414-2.268.528-.42.198.942 1.072-.293.48.43.2.003.26.07 1.436-.305-.088-.388-.957.028-.547.308-.118-.4.183-.9.63.385.088-.4-.624-.512.22-.16.467-.74.068-.563h.122M119.305 108l.197.573-.13.936.377.85.252.462-.105.543-.822.568-.646.37-.485.702-.3.844-.226 1.202-.903 1.058-.663.293-.6.6-.256-.54.014-2.306.98-1.624.862-.16.326-.254.397-1.5.857-1.18.433-.965.438-.474M70.388 164l.612 1.187-.8.782-.874.03-.337-.772 1.39-1.227"/><path d="M72.672 20.682l-.37-.37L73.6 20l.4 1.338-.112.18L72.7 22l-.628-.1-.073-.43.672-.78M67 166l.2-1 .8.522-.093.267L67 166"/></g><g fill="#fff"><circle cx="106" cy="71" r="7.846"/><circle opacity=".2" cx="106" cy="71" r="6.81714%"><animate attributeType="SVG" attributeName="r" begin="0s" dur="1.5s" repeatCount="indefinite" from="5%" to="10%"/><animate attributeType="CSS" attributeName="stroke-width" begin="0s" dur="1.5s" repeatCount="indefinite" from="3%" to="0%"/><animate attributeType="CSS" attributeName="opacity" begin="0s" dur="1.5s" repeatCount="indefinite" from="1" to="0"/></circle></g></svg>